<svg height="40" viewBox="0 0 87 40" width="87" xmlns="http://www.w3.org/2000/svg" xmlns:xlink="http://www.w3.org/1999/xlink"><mask id="a" fill="#fff"><path d="m86.7822222 39.9111111h-86.7822222v-39.9111111h86.7822222z" fill="#fff" fill-rule="evenodd"/></mask><path d="m55.7866667 14.1155556h-9.36l-2.16 4.0711111c-.2232257.4767339-.4848276.9345372-.7822223 1.3688889h-.0977777s-.4444445-.6844445-.7822223-1.3244445l-2.16-4.1155555h-9.3333333l7.3511111 11.5555555-7.3511111 11.6622222h9.2l2.48-4.7377777c.2179664-.4190718.4137912-.849293.5866667-1.2888889h.0977778c.1698589.4408683.3657596.8712561.5866666 1.2888889l2.5244445 4.7377777h9.2088889l-7.3244445-11.5555555 7.3066667-11.5555556m-41.4577778 17.3866667c-1.2062726.0286076-2.374358-.4239174-3.2465234-1.2577276-.8721655-.8338102-1.37673064-1.9803774-1.40236549-3.1867169.05973646-1.7719087.79427179-3.4540263 2.05333329-4.7022222 3.7777778 1.7244445 7.2355556 3.0222222 7.2355556 5.2444445 0 2.5155555-1.7777778 3.9022222-4.64 3.9022222zm.2666667-23.2888889c2.5422222 0 4.0533333 1.40444444 4.0533333 3.5555556-.0355742 1.6747504-.5008155 3.3122773-1.3511111 4.7555555-3.4044445-1.4577778-6.2222222-2.7555555-6.2222222-5.3333333.0088889-1.62666669 1.0933333-2.9777778 3.52-2.9777778zm9.5111111 11.6711111c.3733333-.4888889 3.7777778-4.6488889 3.7777778-8.8088889 0-7.1822222-5.8844445-11.1822222-13.0755556-11.1822222-9.02222222 0-12.96 5.51111111-12.96 11.1288889-.02999271 2.8726795 1.25715897 5.600917 3.49333333 7.4044444-1.19111111.8888889-5.33333333 4.4444445-5.33333333 9.4044445 0 6.16 4.91555556 11.9911111 14.32 11.9911111 9.5644444 0 14.32-5.8844445 14.32-11.7777778 0-3.8933333-1.9733333-6.3733333-4.5422222-8.16zm48.3644444 11.6177778c-1.2062726.0286076-2.374358-.4239174-3.2465234-1.2577276-.8721655-.8338102-1.3767306-1.9803774-1.4023655-3.1867169.0597365-1.7719087.7942718-3.4540263 2.0533334-4.7022222 3.7777777 1.7244445 7.2444444 3.0222222 7.2444444 5.2444445 0 2.5422222-1.7777778 3.9466666-4.6488889 3.9466666zm.2755556-23.2888889c2.5422222 0 4.0533333 1.40444444 4.0533333 3.5555556-.0355742 1.6747504-.5008155 3.3122773-1.3511111 4.7555555-3.4044444-1.4577778-6.2222222-2.7555555-6.2222222-5.3333333 0-1.62666669 1.0844444-2.9777778 3.5111111-2.9777778zm9.5111111 11.6711111c.3822222-.4888889 3.7777778-4.6488889 3.7777778-8.8088889 0-7.1822222-5.8933334-11.1822222-13.0755556-11.1822222-9.0222222 0-12.9688889 5.51111111-12.9688889 11.1288889-.0243532 2.8753943 1.2693438 5.6036211 3.5111111 7.4044444-1.1911111.8888889-5.3333333 4.4444445-5.3333333 9.4044445 0 6.16 4.9155556 11.9911111 14.32 11.9911111 9.5644444 0 14.32-5.8844445 14.32-11.7777778 0-3.8933333-1.9644444-6.3733333-4.56-8.16z" fill="#e52920" mask="url(#a)"/></svg>