<svg height="46" viewBox="0 0 76 46" width="76" xmlns="http://www.w3.org/2000/svg"><g fill="none" fill-rule="evenodd"><path d="m21.35 16.35c0 .925.1 1.675.275 2.225.2.55.45 1.15.8 1.8.125.2.175.4.175.575 0 .25-.15.5-.475.75l-1.575 1.05c-.225.15-.45.225-.65.225-.25 0-.5-.125-.75-.35-.35-.375-.65-.775-.9-1.175-.25-.425-.5-.9-.775-1.475-1.95 2.3-4.4 3.45-7.35 3.45-2.1 0-3.775-.6-5-1.8s-1.85-2.8-1.85-4.8c0-2.125.75-3.85 2.275-5.15s3.55-1.95 6.125-1.95c.85 0 1.725.075 2.65.2s1.875.325 2.875.55v-1.825c0-1.9-.4-3.225-1.175-4-.8-.775-2.15-1.15-4.075-1.15-.875 0-1.775.1-2.7.325s-1.825.5-2.7.85c-.4.175-.7.275-.875.325s-.3.075-.4.075c-.35 0-.525-.25-.525-.775v-1.225c0-.4.05-.7.175-.875s.35-.35.7-.525c.875-.45 1.925-.825 3.15-1.125 1.225-.325 2.525-.475 3.9-.475 2.975 0 5.15.675 6.55 2.025 1.375 1.35 2.075 3.4 2.075 6.15v8.1zm-10.15 3.8c.825 0 1.675-.15 2.575-.45s1.7-.85 2.375-1.6c.4-.475.7-1 .85-1.6s.25-1.325.25-2.175v-1.05c-.725-.175-1.5-.325-2.3-.425s-1.575-.15-2.35-.15c-1.675 0-2.9.325-3.725 1s-1.225 1.625-1.225 2.875c0 1.175.3 2.05.925 2.65.6.625 1.475.925 2.625.925zm20.075 2.7c-.45 0-.75-.075-.95-.25-.2-.15-.375-.5-.525-.975l-5.875-19.325c-.15-.5-.225-.825-.225-1 0-.4.2-.625.6-.625h2.45c.475 0 .8.075.975.25.2.15.35.5.5.975l4.2 16.55 3.9-16.55c.125-.5.275-.825.475-.975s.55-.25 1-.25h2c.475 0 .8.075 1 .25.2.15.375.5.475.975l3.95 16.75 4.325-16.75c.15-.5.325-.825.5-.975.2-.15.525-.25.975-.25h2.325c.4 0 .625.2.625.625 0 .125-.025.25-.05.4s-.075.35-.175.625l-6.025 19.325c-.15.5-.325.825-.525.975s-.525.25-.95.25h-2.15c-.475 0-.8-.075-1-.25s-.375-.5-.475-1l-3.875-16.125-3.85 16.1c-.125.5-.275.825-.475 1s-.55.25-1 .25zm32.125.675c-1.3 0-2.6-.15-3.85-.45s-2.225-.625-2.875-1c-.4-.225-.675-.475-.775-.7s-.15-.475-.15-.7v-1.275c0-.525.2-.775.575-.775.15 0 .3.025.45.075s.375.15.625.25c.85.375 1.775.675 2.75.875 1 .2 1.975.3 2.975.3 1.575 0 2.8-.275 3.65-.825s1.3-1.35 1.3-2.375c0-.7-.225-1.275-.675-1.75s-1.3-.9-2.525-1.3l-3.625-1.125c-1.825-.575-3.175-1.425-4-2.55-.825-1.1-1.25-2.325-1.25-3.625 0-1.05.225-1.975.675-2.775s1.05-1.5 1.8-2.05c.75-.575 1.6-1 2.6-1.3s2.05-.425 3.15-.425c.55 0 1.125.025 1.675.1.575.075 1.1.175 1.625.275.5.125.975.25 1.425.4s.8.3 1.05.45c.35.2.6.4.75.625.15.2.225.475.225.825v1.175c0 .525-.2.8-.575.8-.2 0-.525-.1-.95-.3-1.425-.65-3.025-.975-4.8-.975-1.425 0-2.55.225-3.325.7s-1.175 1.2-1.175 2.225c0 .7.25 1.3.75 1.775s1.425.95 2.75 1.375l3.55 1.125c1.8.575 3.1 1.375 3.875 2.4s1.15 2.2 1.15 3.5c0 1.075-.225 2.05-.65 2.9-.45.85-1.05 1.6-1.825 2.2-.775.625-1.7 1.075-2.775 1.4-1.125.35-2.3.525-3.575.525z" fill="#252f3e" fill-rule="nonzero"/><g fill="#f90" transform="translate(0 28)"><path d="m68.125 7.675c-8.225 6.075-20.175 9.3-30.45 9.3-14.4 0-27.375-5.325-37.175-14.175-.775-.7-.075-1.65.85-1.1 10.6 6.15 23.675 9.875 37.2 9.875 9.125 0 19.15-1.9 28.375-5.8 1.375-.625 2.55.9 1.2 1.9z"/><path d="m71.55 3.775c-1.05-1.35-6.95-.65-9.625-.325-.8.1-.925-.6-.2-1.125 4.7-3.3 12.425-2.35 13.325-1.25.9 1.125-.25 8.85-4.65 12.55-.675.575-1.325.275-1.025-.475 1-2.475 3.225-8.05 2.175-9.375z"/></g></g></svg>