<svg height="20" viewBox="0 0 122 20" width="122" xmlns="http://www.w3.org/2000/svg"><g fill="none"><g><path d="m14.1268358 4.92923899h.6782376l1.9332444-1.93324433.094793-.82109479c-3.5981308-3.17623498-9.08945259-2.83311082-12.26568757.76502002-.88251001.99866489-1.52202937 2.188251-1.8718291 3.4753004.21495327-.08811749.45393858-.10280373.67823765-.0400534l3.86648865-.63818425s.19626168-.32576769.29906542-.30574098c1.71962617-1.88918559 4.61415225-2.10947931 6.60080105-.50200267z" fill="#ea4335"/><path d="m19.4926569 6.41522029c-.4445928-1.63684913-1.3564753-3.10814419-2.6248331-4.23230974l-2.7129506 2.7129506c1.1455273.93591455 1.7983978 2.3471295 1.7703604 3.82643525v.48197596c1.3337784 0 2.4152203 1.08144194 2.4152203 2.41522034 0 1.3337783-1.0814419 2.4152203-2.4152203 2.4152203h-4.8304405l-.481976.4886515v2.8971962l.481976.481976h4.8304405c3.4686249.0267023 6.3030708-2.7636849 6.3297731-6.2323097.0160213-2.10680911-1.0213618-4.07743661-2.7623498-5.25500671z" fill="#4285f4"/><path d="m6.2576769 17.8718291h4.8304406v-3.8664886h-4.8304406c-.34445928 0-.6835781-.0747664-.99732977-.2176235l-.67823765.2109479-1.94659546 1.9332443-.16955941.6782377c1.09078771.8251001 2.42323097 1.2683578 3.79172229 1.2616822z" fill="#34a853"/><path d="m6.2576769 5.32972069c-3.46995994.02007904-6.26435247 2.84918452-6.24443274 6.31914451.012123 1.9372496.91599483 3.7610146 2.45271045 4.941255l2.80106809-2.8010681c-1.21495327-.5487317-1.75567424-1.9799733-1.20694259-3.1949266.54873164-1.21495327 1.97997329-1.75567423 3.19492657-1.20694259.5353805.24165554.96395193.67156209 1.20694259 1.20694259l2.80106813-2.80106809c-1.1909213-1.55941255-3.04405879-2.47129506-5.0053405-2.46333672z" fill="#fbbc05"/></g><g fill="#5f6368" transform="translate(28.758344 2.603471)"><path d="m6.3564753 12.5687583c-1.68090788.0213619-3.29639519-.6421895-4.47663551-1.8384512-1.21895861-1.14552739-1.89986649-2.7503338-1.87850468-4.423231-.0200267-1.67289719.66088118-3.27636849 1.87850468-4.42323097 1.17489986-1.20827771 2.79172229-1.88518024 4.47663551-1.87182911 1.60480641-.02136181 3.15220294.60213618 4.293725 1.73030708l-1.20694262 1.2283044c-.82643525-.79973297-1.93724967-1.2376502-3.08678238-1.22162884-1.20560748-.01468624-2.36315087.47797063-3.188251 1.35647531-.85714286.85046729-1.32977303 2.01468624-1.30974633 3.22162883-.01068091 1.19359146.46194927 2.34045394 1.30974633 3.18157544 1.74632844 1.74098796 4.56208278 1.77436586 6.34979973.07476635.53271027-.58210948.85847797-1.32443257.92923897-2.1094793h-4.070761v-1.73564753h5.7596796c.0560747.34979973.0787717.7036048.0680908 1.05874499.0720961 1.48064085-.4646195 2.92656876-1.4859813 4.00267025-1.13618162 1.1815754-2.72229644 1.8251001-4.3618158 1.7690253zm13.3911883-1.153538c-1.6061416 1.5393858-4.140187 1.5393858-5.7463285 0-.7783711-.7543391-1.2029372-1.79973298-1.1735647-2.88251002-.0293725-1.08277704.3965287-2.12817089 1.1735647-2.88251001 1.6074766-1.53538051 4.1388518-1.53538051 5.7463285 0 .777036.75433912 1.2029372 1.79973297 1.1735647 2.88251001.0280374 1.08411215-.400534 2.12950602-1.1802403 2.88251002zm-4.4779707-1.1321762c.8291055.8865153 2.2202937.9319092 3.1068091.1014686.034713-.0333779.0694259-.0667557.1014686-.1014686.4526035-.46862487.6969293-1.09879844.6782377-1.75033382.0200267-.65287049-.2242991-1.2870494-.6782377-1.75700935-.8531375-.88918558-2.2656876-.91989319-3.1562083-.06675567-.0226969.02136182-.0453938.04405875-.0667556.06675567-.4539386.46995995-.6982644 1.10413886-.6782377 1.75700935-.0173564.65153538.2296395 1.28304406.6849132 1.75033382zm13.3097464 1.1321762c-1.6061416 1.5393858-4.140187 1.5393858-5.7463285 0-.7783711-.7543391-1.2029372-1.79973298-1.1735647-2.88251002-.0293725-1.08277704.3965287-2.12817089 1.1735647-2.88251001 1.6061415-1.53938585 4.1401869-1.53938585 5.7463285 0 .777036.75433912 1.2029372 1.79973297 1.1735647 2.88251001.0307076 1.08277704-.3951936 2.12817092-1.1735647 2.88251002zm-4.4766356-1.1321762c.8291055.8865153 2.2202938.9319092 3.1068091.1014686.034713-.0333779.0694259-.0667557.1014686-.1014686.4526035-.46862487.6969293-1.09879844.6782377-1.75033382.0200267-.65287049-.2242991-1.2870494-.6782377-1.75700935-.8531375-.88918558-2.2656875-.91989319-3.1548731-.06675567-.022697.02136182-.0453939.04405875-.0667557.06675567-.4539386.46995995-.6982643 1.10413886-.6782376 1.75700935-.0173565.65153538.2296395 1.28304406.6849132 1.75033382zm10.2830441 5.9078771c-.8130841.0253672-1.6101469-.2283044-2.259012-.7196261-.5754339-.4325768-1.0293725-1.0080107-1.3164219-1.6688919l1.5460614-.6448598c.1682243.3951936.4312417.7423231.7663551 1.0106809.3578105.2883845.8077437.4405874 1.2683579.4272363.5901201.0360481 1.1668891-.1869159 1.5807743-.6101468.4085447-.4926569.6101469-1.1255007.5634179-1.763685v-.5834446h-.0614152c-.5246996.6221629-1.3110815.9612818-2.1228305.9158879-1.0293725.0026702-2.0133511-.4245661-2.7129506-1.1802403-.7583444-.7489987-1.17757-1.77570096-1.1602136-2.84245663-.0186916-1.07209613.4005341-2.10547397 1.1602136-2.86248331.6982644-.75834446 1.682243-1.18958612 2.7129506-1.18692961.4312417-.0013214.858478.09480678 1.2483312.27771732.3377837.14686249.6381842.36715621.88251.64485982h.0614152v-.64485982h1.682243v7.22429903c.0894526 1.1548732-.3004006 2.2963952-1.0787717 3.1548732-.740988.7089453-1.7356475 1.0881175-2.7610147 1.0520694zm.1228304-5.2096128c.5861149.0133511 1.1481976-.2363151 1.5327103-.6782376.4178905-.47930578.6395194-1.10013355.6168224-1.73698268.0253672-.64753004-.1949265-1.27903872-.6168224-1.77036048-.3845127-.44325768-.9465954-.69158879-1.5327103-.67823765-.6021361-.01201602-1.1802403.23497997-1.5874499.67823765-.4485981.47396528-.6929239 1.10547396-.6782376 1.75700934-.0133512.64619493.2296395 1.27102804.6782376 1.73698262.4045394.447263.9826435.6995995 1.5874499.6915888zm6.7089453-10.51401868v11.85714288h-1.7703605v-11.85714288zm4.8571429 12.10146858c-1.0720962.0280374-2.1068091-.3925233-2.8558078-1.1602136-.7596796-.7610147-1.1748999-1.80106806-1.1468625-2.87583442-.0400534-1.07743658.3591456-2.12550067 1.105474-2.90387183.7049399-.7423231 1.6902537-1.15353805 2.7129506-1.13351135.4659546-.00534045.9265688.08544727 1.3564753.26435247.3871829.15620828.7396529.38718291 1.0373832.67823765.2563418.246996.4833111.52202938.6782376.8210948.1575434.25233644.2910548.51802403.4005341.79305741l.1829105.46194926-5.4259012 2.23230975c.3364486.77169556 1.1121495 1.25767686 1.953271 1.22162886.8130842.0026702 1.5674233-.423231 1.987984-1.11882512l1.3564753.91588782c-.3457944.4953271-.789052.9158879-1.3030707 1.23498-.6088118.3845127-1.3190922.5821095-2.0400534.5687583zm-2.2656876-4.15887846 3.6088117-1.49933244c-.1108144-.26435247-.3097463-.48197597-.5634179-.61682243-.283044-.16021362-.6034713-.24165554-.929239-.2376502-.5514018.01468624-1.0761014.24566088-1.4579439.64485981-.4632844.44325768-.7049399 1.0694259-.6582109 1.70894526z"/><g transform="translate(53.124166 1.121495)"><path d="m5.69692924 11.447263c-3.08678238.0534046-5.63150868-2.40587448-5.68491322-5.49265686-.00133511-.07476635-.00133511-.15086782.00133511-.22563418-.07209612-3.08678237 2.37249667-5.64619492 5.45794393-5.71829105.07476636-.00133512.15086782-.00133512.22563418-.00133512 1.54339119-.04806408 3.02536716.61148198 4.02269693 1.79038719l-.97730307.94926568c-.73297731-.92256341-1.86248331-1.43925233-3.03871829-1.39118825-1.1281709-.02536715-2.21895862.41121496-3.01869159 1.20694259-.8317757.83711616-1.27636849 1.98264353-1.22830441 3.16154874-.0493992 1.1789052.39652871 2.32443257 1.22830441 3.16154873.79973297.79706275 1.89052069 1.23230973 3.01869159 1.20694263 1.31375167.0146862 2.56208277-.5700935 3.39118825-1.58744998l.97730304.97730307c-.51134844.61148201-1.15353802 1.10013351-1.87850464 1.43124171-.78237651.3631508-1.63551402.5447263-2.49666222.5313751z"/><path d="m12.6969292 11.2029372h-1.4045393v-10.9559412h1.4045393z"/><path d="m14.9906542 4.60881175c1.5313752-1.52069426 4.0040053-1.52069426 5.5353805 0 .7263017.76769025 1.11749 1.79305741 1.0854473 2.84913218.0320427 1.05607476-.3591456 2.08144192-1.0854473 2.84913217-1.5313752 1.5206943-4.0040053 1.5206943-5.5353805 0-.7263017-.76769025-1.11749-1.79305741-1.0854473-2.84913217-.0320427-1.05607477.3578105-2.08144193 1.0854473-2.84913218zm1.0440588 4.81708945c.8985313.9492657 2.3965287.9906542 3.3471295.09212283.0320427-.02937249.0627503-.06141522.0921228-.09212283.4953271-.53137517.7570093-1.24032043.7263017-1.96662216.0320427-.72630174-.2296395-1.435247-.7263017-1.96662216-.8985314-.94926569-2.3965287-.99065421-3.3471295-.09212283-.0320427.02937249-.0627504.06141522-.0921228.09212283-.4953272.53137516-.7570094 1.24032042-.7263018 1.96662216-.0280374.72496662.2363151 1.43124165.7329773 1.95994659z"/><path d="m29.3911883 11.2029372h-1.3564753v-1.0373831h-.0400535c-.2416555.3938585-.5834445.7169559-.9906542.9359145-.4218958.2443258-.9025367.3738318-1.3911882.3724967-.8037383.0547396-1.5874499-.2603471-2.129506-.8544726-.5140187-.65020031-.7716956-1.46595465-.7263018-2.2923899v-4.61281709h1.4045394v4.35514019c0 1.39786382.6168225 2.0961282 1.8518024 2.0961282.5567424.0173564 1.0867824-.23498 1.4245661-.67823768.364486-.46061415.5580775-1.03337784.5500668-1.62082777v-4.15220294h1.4045394v7.48865149z"/><path d="m34.1602136 11.447263c-.9639519.0026702-1.8811749-.4152203-2.5100133-1.1468625-.7036048-.77703601-1.0801068-1.79439249-1.0520695-2.84245657-.0280373-1.04806409.3484647-2.06542057 1.0520695-2.84245661.6288384-.73030708 1.5460614-1.14953271 2.5100133-1.14686249.5340454-.00801068 1.0614152.11748999 1.5327103.3658211.4152203.2082777.7663551.5246996 1.0173565.91588785h.0614152l-.0614152-1.03738318v-3.4659546h1.4045394v10.9559412h-1.3564753v-1.0373831h-.0614153c-.2510013.3911882-.6021361.7076101-1.0173564.9158878-.4672898.2456609-.9893191.3724967-1.5193592.3658211zm.2309747-1.2817089c.6421895.0093458 1.2576769-.25767693 1.6889185-.73297733.4766355-.54339119.7209613-1.25233645.6782377-1.97463284.0427236-.72096129-.2016022-1.43124166-.6782377-1.97463285-.8518024-.93724966-2.3017356-1.00534045-3.2389853-.15220294-.0534045.04806409-.1041389.10013352-.1522029.15220294-.4779707.53938585-.7222964 1.246996-.6782377 1.96662216-.0440587.71962617.200267 1.42723632.6782377 1.96662217.4325767.48598131 1.0534045.75834449 1.7022697.74899869z"/></g></g></g></svg>