<svg height="40" viewBox="0 0 40 40" width="40" xmlns="http://www.w3.org/2000/svg"><g fill="#2e6cf6" fill-rule="evenodd"><circle cx="20" cy="20" opacity=".1" r="20"/><path d="m13.0535739 15.3258789c1.2834836 0 2.087056-.8482153 2.0758953-1.9084844-.0111607-1.0825906-.7924117-1.9084844-2.0535739-1.9084844-1.2500015 0-2.0758953.8258938-2.0758953 1.9084844 0 1.0602691.7924117 1.9084844 2.0312524 1.9084844zm7.5446518 12.5669793v-6.1718824c0-.3348218.0334822-.6584829.122768-.9040189.2678575-.6584829.8705368-1.3392873 1.886163-1.3392873 1.3281266 0 1.8638415 1.0156262 1.8638415 2.500003v5.9151856h3.6718794v-6.3392933c0-3.3928612-1.8080379-4.9776845-4.2299158-4.9776845-1.9038341 0-2.7826639 1.0147543-3.2749816 1.7672783l-.0399802.0608413.0002257-1.5714228h-3.6718793l.0006174.0182178c.0000792.0026141.0001654.0055451.0002582.0088152l.0006331.0238675c.0035324.141461.012341.6280893.0163224 2.0593464l.000729.2990241c.0001097.0519957.0002134.1050854.0003105.1592914l.0006893.5185899c.0000549.0611029.0001022.1233886.0001415.1868793l.0000643.8211496c-.0000305.073486-.0000706.1482658-.0001205.2243616l-.0007252.720994c-.0020229 1.5154508-.0076021 3.478871-.01892 6.0197442zm-5.7031318 0v-11.060281h-3.6830401v11.060281z"/></g></svg>