<svg height="40" viewBox="0 0 40 40" width="40" xmlns="http://www.w3.org/2000/svg"><g fill="#2e6cf6" fill-rule="evenodd"><circle cx="20" cy="20" opacity=".1" r="20"/><path d="m24.2500164 24.6674079c.4464291-.7142865 6.2165253-10.078137 6.2165253-10.1227799 0-.0334822-.0223215-.0558036-.044643-.0669644l-6.0379536-3.0133964c-.0892858-.0446429-.1897323-.0669644-.2901789-.0669644-.2343753 0-.4575898.1116073-.5803578.3125004l-3.6160758 5.8817034zm-7.6339377 3.649558c.3794648 0 .5468757-.3236611.5468757-.6696437v-13.0915335c0-.0111607-.0223215-.0446429-.0334822-.0558036l-5.7031318-2.8571463c-.1562502-.0781251-.3125004-.1674109-.491072-.1674109-.3013397 0-.4352684.2566968-.4352684.5357149v12.7232295c0 .3348218.245536.736608.5580364.8928582l5.1897383 2.6004495c.1116073.0558037.2343753.0892859.368304.0892859zm7.2209908-2.9687536-5.9598286-9.6651901v6.6964366zm6.0825965 2.9241106c.368304 0 .5803578-.2566967.5803578-.6250007v-11.7634069l-6.0267929 9.7879581 4.9218809 2.4553601c.1562502.0892858.3348218.1450894.5245542.1450894z"/></g></svg>