<svg height="32" viewBox="0 0 110 32" width="110" xmlns="http://www.w3.org/2000/svg"><path d="m18.8980576 29.9506873c5.2482327-.9271117 9.5829732-1.6942965 9.6327585-1.7048543l.0905196-.0191968-4.9548491-5.8936374c-2.7251649-3.2415011-4.9548466-5.9062065-4.9548466-5.9215672 0-.0290825 5.1163001-14.11826725 5.1450623-14.16842684.0096165-.01672362 3.4914142 5.99450451 8.4401059 14.57164914 4.6330559 8.0300764 8.4527857 14.6509032 8.488289 14.7129455l.064554.1128061-15.746919-.0020312-15.74691598-.0020229 9.54224138-1.6856583zm60.3875911-1.4253427c-2.3969901-.1536799-3.7910895-1.5185796-4.160518-4.0733671-.0982718-.6796153-.0986475-.6972483-.1087041-5.109296l-.0097338-4.2701243h1.0608459 1.0608426l.0083541 4.1303107c.0075301 3.7225343.0122546 4.1589963.0478441 4.4208658.1444382 1.0627731.4319902 1.7774644.9215476 2.2904575.3918024.4105567.850469.6509482 1.4853852.7785072.2995382.060178 1.151652.0602985 1.4247465.0002477.6436807-.1416515 1.1595843-.4217601 1.6146898-.8766931.5187249-.5185292.9024672-1.254214 1.0881466-2.0861278l.0625798-.2803852.0069687-4.1652648.0069686-4.1652636h1.0830547 1.0830572v6.5479119 6.5479112h-1.0718999-1.0719v-1.0388881c0-.7058905-.0077365-1.0363103-.0241276-1.0308461-.0132677.0044256-.0683191.0886413-.1223359.1871517-.3693814.6736589-.984811 1.2897168-1.65918 1.6608718-.8083485.444892-1.6190171.6030858-2.7266297.5320701zm24.3296493-.0105818c-.84614-.0636011-1.737078-.3545078-2.465276-.80495-1.534811-.9493964-2.442953-2.51431-2.7088543-4.6679114-.0920132-.745227-.1030722-1.7462574-.0262892-2.3794974.1715621-1.4149319.7275659-2.8039477 1.519316-3.7955795.2029685-.254209.6634195-.7146591.9176185-.9176149.686442-.548068 1.489375-.9313215 2.341869-1.1178159.496704-.1086603 1.371408-.1596791 1.899127-.1107707 1.325673.1228635 2.540666.7470352 3.366468 1.7294342.839002.9981059 1.300163 2.3927899 1.359055 4.110163.00923.2691395.011467.7410086.004978 1.0485979l-.011807.559252-4.642959.0058787-4.642958.0058788v.207193c0 .63074.153344 1.3491336.418444 1.9603539.228608.527084.622128 1.1026478.944328 1.3811785.660642.5711036 1.469181.9129416 2.353925.9952054.328053.0305001 1.1641-.0016101 1.537943-.0590518 1.0666-.1639148 2.080638-.5822608 2.899535-1.1962133.096345-.0722343.188547-.1397219.204891-.1499701.023918-.0149975.02957.1737271.028965.9670401l-.000743.9856755-.219415.1357026c-.926376.5729399-1.987634.9408326-3.111291 1.0785507-.335332.0410976-1.565831.059406-1.966857.0292625zm4.04075-8.3132581c0-1.0565318-.445237-2.2302077-1.075297-2.8345584-.449648-.4313016-.993213-.6948844-1.639406-.794971-.305715-.0473521-.950039-.0291147-1.272358.0360131-.681369.1376784-1.24495.4372208-1.736506.9229487-.517331.5111981-.905198 1.1320911-1.149128 1.8395124-.087714.2543808-.190306.6720118-.222151.9043183l-.015172.1106858h3.555008 3.55501zm-62.9808831 7.9843526c.0054387-.0160204 1.5820779-4.1579468 3.5036453-9.2042807l3.4937585-9.17529214h1.1225637 1.1225613l.0931394.23884754c.2846242.7298968 6.9942574 18.1499579 6.9942574 18.1590081 0 .0059613-.5374065.0106715-1.1942367.0106715l-1.1942366-.0002491-.9670402-2.5746647-.9670401-2.5746638-3.8937539-.0000471-3.8937546-.0000462-.0338375.0873829c-.0186089.0480604-.4317727 1.206577-.918145 2.574483l-.8843084 2.4870968-1.1967299.0004128c-.9472637.0002954-1.1946675-.0056641-1.1868427-.02872zm11.2966554-7.0854565c0-.0040788-.6507805-1.7683481-1.4461792-3.9205913-1.4880538-4.0264755-1.571296-4.2687388-1.6888653-4.9151647-.0551307-.3031208-.0830258-.3115443-.1157487-.034953-.0233912.1977044-.1248137.6400947-.2030036.8854831-.0387965.1217538-.7088993 1.9609377-1.4891189 4.0870746-.780218 2.1261372-1.4185788 3.8746743-1.4185788 3.8856375 0 .0109641 1.431337.0199341 3.1807476.0199341 1.7494107 0 3.1807469-.0033357 3.1807469-.0074227zm5.7556377 6.7792593v-.3353259l3.8793674-5.332929 3.8793674-5.3329297-3.5123581-.011651-3.5123581-.011651-.0061017-.8913083-.0061017-.891308h5.0801524 5.0801516v.3010434.3010432l-3.8798124 5.3620122c-2.1338968 2.9491074-3.8798124 5.3669737-3.8798124 5.3730374 0 .0060604 1.7249436.0110243 3.8332076.0110243h3.8332084v.8971333.8971342h-5.394456-5.3944544zm28.4674933.3197893c-.0085448-.0085423-.0155358-2.9655885-.0155358-6.5712132v-6.555679h1.0602498 1.060249v1.3515261c0 .7433396.0090386 1.3515264.0200885 1.3515264s.0626525-.121677.114672-.270393c.2383793-.6814731.6517763-1.3182379 1.1843732-1.8243202.4797914-.4559053 1.0281503-.7285391 1.6751955-.8328746.1817575-.0293088.3355514-.0349043.6990656-.0254356.4565315.0118913.695213.0452623.9728661.1360189l.0873828.0285631v1.1005273 1.1005266l-.2504984-.1253925c-.4424919-.2214993-.8791-.3091539-1.4039563-.2818623-.3415845.0177626-.5657904.0616246-.8388783.1641147-.5618826.2108747-1.0176503.5830849-1.3361186 1.0911611-.4610314.7355188-.7898436 1.6809546-.8868249 2.5498988-.0174042.1559389-.0276665 1.4259438-.0317543 3.9296225l-.0060357 3.6992207h-1.0445034c-.5744757 0-1.0514928-.0069934-1.0600351-.0155358zm-90.19495968-.0460375c0-.008298 2.33470086-4.0611555 5.18822405-9.0063534l5.18822323-8.9912681 6.0462744-5.07404575c3.3254509-2.79072456 6.0552296-5.07745661 6.0661738-5.08174169.0109443-.00405499-.0328013.10604697-.0972124.24478722-.0644112.13874024-3.0188425 6.47568435-6.5654031 14.08209752l-6.44829034 13.8298417-4.68899482.0058788c-2.57894657.0032366-4.68899482-.0009083-4.68899482-.0091996z" fill="#0089d6"/></svg>