<svg height="15" viewBox="0 0 15 15" width="15" xmlns="http://www.w3.org/2000/svg"><path d="m15.18 124c.2266667 0 .42-.08.58-.24s.24-.353333.24-.58v-2.94c0-.226667-.08-.42-.24-.58s-.3533333-.24-.58-.24c-1.0933333 0-2.08-.153333-2.96-.46-.1466667-.066667-.3-.08-.46-.04s-.2933333.12-.4.24l-1.84 1.84c-1.17333333-.613333-2.23333333-1.393333-3.18-2.34s-1.72666667-2.006667-2.34-3.18l1.84-1.84c.12-.106667.19333333-.24.22-.4s.02-.313333-.02-.46c-.30666667-.88-.46-1.866667-.46-2.96 0-.226667-.08-.42-.24-.58s-.35333333-.24-.58-.24h-2.94c-.22666667 0-.42.08-.58.24s-.24.353333-.24.58c0 1.92.37333333 3.76 1.12 5.52.72 1.693333 1.73333333 3.193333 3.04 4.5s2.80666667 2.32 4.5 3.04c1.76.746667 3.6 1.12 5.52 1.12z" fill="#fff" transform="translate(-1 -109)"/></svg>