<svg height="25" viewBox="0 0 110 25" width="110" xmlns="http://www.w3.org/2000/svg"><g fill="#573885"><path d="m8.2334875 3.403475c0-.7303625-.365175-1.2781375-1.9792125-1.2781375-1.61746625 0-1.98092375.547775-1.98092375 1.2781375v1.9792c0 .59945.20842875 1.1989.78203625 1.6932625l5.4690875 4.6905c.7837625.651125 1.2523 1.459 1.2523 2.2927125v2.969675c0 1.774225-2.0860125 2.7629625-5.5242125 2.7629625-3.80338875 0-5.62929-.85955-5.62756872-2.7629625v-2.5769375h3.43992872l-.00175 2.4735875c0 .8871125.67868375 1.4073125 2.189365 1.4073125 1.4073125 0 2.084275-.5202 2.084275-1.4073125v-2.6320625c0-.651125-.2601-1.1472125-.9887375-1.7966125l-5.05568-4.4028375c-.93706625-.8095875-1.4589975-1.434875-1.4589975-2.3977875v-2.2668625c0-1.850025 1.9292525-2.762975 5.4208525-2.762975 3.8567875 0 5.417425.91295 5.417425 2.6320625v2.397775h-3.4382125z"/><path d="m44.841075 16.51895c0 1.0421375.4151375 1.7725 2.6044875 1.7725 2.1893625 0 2.606225-.7303625 2.606225-1.7725v-12.664175c0-1.0404125-.4168625-1.770775-2.6045-1.770775-2.1893625 0-2.6062125.7303625-2.6062125 1.770775zm-3.4382-12.71585c0-1.8500125 1.4055875-3.1781 6.0444125-3.1781 4.6371 0 6.044425 1.3280875 6.044425 3.1781l-.00125 12.767525c0 1.8500125-1.4056 3.179825-6.044425 3.179825-4.6371 0-6.0444125-1.3298125-6.0444125-3.179825z"/><path d="m60.4990375 9.66665c1.564075 0 2.6578875-.208425 2.6578875-1.17305v-5.0798c0-.964625-1.0938125-1.17305-2.6578875-1.17305h-1.6657125v7.4259zm-5.1056375-8.8849h5.4725375c4.4303875 0 5.7326375.7286375 5.7326375 2.866325l-.00375 4.6112625c0 2.13595-1.30225 2.8663125-5.7292 2.8663125h-2.032525v8.46805h-3.439925z"/><path d="m75.1872 3.362125c0-.7303625-.3651875-1.278125-1.9792125-1.278125-1.6174625 0-1.98265.5477625-1.98265 1.278125v1.9792125c0 .59945.208425 1.1988875.7820375 1.6932625l5.4725375 4.6905c.7803125.651125 1.24885 1.459 1.24885 2.2927125v2.9713875c0 1.7725-2.0825625 2.76125-5.5224875 2.76125-3.8033875 0-5.6293-.85955-5.6293-2.7629625v-2.5786625h3.4399375v2.4753c0 .8871125.6786875 1.407325 2.1893625 1.407325 1.4073125 0 2.084275-.5202125 2.084275-1.407325v-2.63205c0-.651125-.2583875-1.1454875-.9904625-1.7966125l-5.05395-4.4045625c-.9405125-.807875-1.459-1.43315-1.459-2.3960625v-2.2685875c0-1.850025 1.927525-2.76125 5.42085-2.76125 3.8550625 0 5.4174125.911225 5.4174125 2.633775v2.3960625h-3.4382z"/><path d="m100.567213 3.362125c0-.7303625-.365175-1.278125-1.9792005-1.278125-1.61575 0-1.980925.5477625-1.980925 1.278125v1.9809375c0 .597725.208425 1.1971625.782025 1.6915375l5.4708125 4.692225c.782038.651125 1.24885 1.457275 1.24885 2.2909875v2.9713875c0 1.7725-2.082563 2.76125-5.5207625 2.76125-3.8051125 0-5.6310125-.85955-5.6310125-2.76125v-2.580375h3.44165l-.00125 2.4753c0 .8871125.6786875 1.407325 2.1910875 1.407325 1.403875 0 2.0825625-.5202125 2.0825625-1.407325v-2.63205c0-.651125-.260112-1.1454875-.990475-1.7966125l-5.05395-4.4045625c-.9387875-.80615-1.459-1.4314375-1.459-2.3960625v-2.2685875c.0000375-1.846575 1.927575-2.76125 5.4209-2.76125 3.855063 0 5.419138.914675 5.419138 2.633775v2.3960625h-3.439938z"/><path d="m22.4203875.78175h3.4451l-7.537875 23.61785h-3.4433625z"/><path d="m16.987475 15.4526875-4.6594875-14.627875h3.443375l2.9369375 9.2208z"/><path d="m89.3362.78175h3.443375l-7.5378625 23.6213h-3.443375z"/><path d="m83.9188 15.41135-4.6595-14.6296h3.443375l2.9386625 9.222525z"/><path d="m39.2806875 19.5937h.01725v-15.9404625c0-2.137675-1.3039625-2.8680375-5.7309125-2.8680375h-6.6335375l-.00125 18.8153875h3.4382l.00125-.0075v-17.3495h2.83015c1.56235 0 2.6561625.21015 2.6561625 1.17305v16.17645z"/><path d="m107.665837 2.9538875c.323838 0 .613225-.022375.613225-.409975 0-.315225-.2825-.3703375-.549487-.3703375h-.521938v.7803125zm-.458199 1.419375h-.384125v-2.52525h.962899c.597726 0 .894001.2187625.894001.716575 0 .45475-.285938.651125-.656288.6976375l.718313 1.1110375h-.4272l-.66835-1.0938125h-.43925zm.465087.563275c.990463 0 1.770787-.776875 1.770787-1.8327875 0-1.036975-.780324-1.8190125-1.770787-1.8190125-1.005962 0-1.786275.7820375-1.786275 1.8190125 0 1.0559125.780312 1.8327875 1.786275 1.8327875m-2.22725-1.8327875c0-1.2557375 1.01975-2.1842 2.22725-2.1842 1.192 0 2.210025.9284625 2.210025 2.1842 0 1.2695125-1.018025 2.1979625-2.210025 2.1979625-1.2075 0-2.22725-.92845-2.22725-2.1979625"/></g></svg>