<svg height="40" viewBox="0 0 40 40" width="40" xmlns="http://www.w3.org/2000/svg"><g fill="#2e6cf6" fill-rule="evenodd"><circle cx="20" cy="20" opacity=".1" r="20"/><path d="m17.2410786 27c6.6294722 0 10.2567087-5.491078 10.2567087-10.2567087 0-.1562501 0-.3125003-.0111608-.4687505.7031259-.5133935 1.3169659-1.149555 1.8080379-1.8638415-.6473222.2790182-1.350448.4799113-2.0758953.5580364.7477687-.4464291 1.3169658-1.149555 1.5848233-1.9866096-.6919651.412947-1.473216.7142866-2.2879492.8705368-.6584829-.7031258-1.595984-1.1383942-2.6339317-1.1383942-1.9977702 0-3.604915 1.6183055-3.604915 3.604915 0 .2790182.0334822.5580364.0892858.8258938-2.991075-.1562501-5.6584888-1.5848233-7.4330445-3.7723259-.3125004.5357149-.4910721 1.149555-.4910721 1.8191986 0 1.2500015.6361615 2.3549135 1.6071448 3.0022357-.5915185-.0223214-1.1495549-.1897323-1.6294662-.4575898v.0446429c0 1.7522342 1.2388408 3.2031288 2.8906284 3.5379507-.3013396.078125-.6250007.122768-.9486618.122768-.2343753 0-.4575898-.0223215-.6808044-.0558037.4575898 1.4285732 1.7857164 2.4665208 3.3705397 2.500003-1.2388407.9709833-2.7901819 1.5401804-4.4754517 1.5401804-.3013397 0-.5803579-.0111607-.8705368-.0446429 1.5959841 1.0267869 3.4933078 1.6183055 5.5357209 1.6183055z"/></g></svg>