<svg height="38" viewBox="0 0 110 38" width="110" xmlns="http://www.w3.org/2000/svg"><path d="m0 .16472546h37.374376v37.37437604h-37.374376zm33.4941764 33.49417634v-29.61397668h-29.61397673v29.59567388h29.61397673zm-26.24625627-23.84858566v11.29284526c0 5.1613977 2.83693847 8.21797 7.63227957 8.21797 4.9417637 0 7.7787021-3.0565723 7.7787021-8.21797v-11.29284526h-3.8801996v11.29284526c0 2.9101497-1.2628952 4.5574043-3.8069884 4.5574043-2.6905158 0-3.8801997-1.7204659-3.8801997-4.5574043v-11.29284526zm20.40765387 2.30615636c1.3544094 0 2.3976706-.9700499 2.3976706-2.32445919 0-1.42762063-.9700499-2.39767055-2.3976706-2.39767055-1.3544093 0-2.3976705.97004992-2.3976705 2.39767055.0183028 1.35440929 1.0615641 2.32445919 2.3976705 2.32445919zm-1.9400998 1.7936773v15.1913477h3.8801997v-15.1913477zm23.171381 8.9866888c4.1913478 0 6.9550749-2.4708819 6.9550749-6.5707155 0-3.953411-2.6905158-6.49750413-6.9550749-6.49750413h-7.3211314v19.36439263h3.8801997v-6.2046589h3.4409317zm-.4392678-3.0748752h-3.0565724v-6.8818636h3.0565724c2.2512479 0 3.4409317 1.2628952 3.4409317 3.3677205 0 2.2512479-1.2079867 3.5141431-3.4409317 3.5141431zm8.6755407 1.7204659c0 4.5574043 2.9101498 7.7787021 7.0282862 7.7787021 2.4708819 0 4.0449251-.8968386 4.9417637-2.3244592v2.1597338h3.8801997v-15.2462562h-3.8801997v2.3976705c-.9700499-1.5740433-2.5440931-2.5440932-4.9417637-2.5440932-4.1913477 0-7.0282862 3.2945092-7.0282862 7.7787022zm11.9517471 0c0 2.6173045-1.6472546 4.3377704-4.0449251 4.3377704-2.6173045 0-3.953411-1.8668886-3.953411-4.3377704 0-2.6905158 1.5008319-4.4109817 3.953411-4.4109817 2.452579 0 4.0449251 1.7936772 4.0449251 4.4109817zm13.5990017 4.2645591c-1.500832 0-1.8668885-.6772047-1.8668885-2.0133112v-6.5890183h3.3677204v-3.2945091h-3.3677204v-4.1913478h-3.8801997v4.1913478h-1.7936772v3.2945091h1.7936772v6.5890183c0 3.5873544 1.5740432 5.3078203 5.3078203 5.3078203h2.0133111v-3.2945091zm7.5590682-9.718802v-7.17470886h-3.8801997v20.26123126h3.8801997v-8.0715474c0-2.6173045 1.3544093-4.1913478 3.6605657-4.1913478 2.2512479 0 3.4409318 1.500832 3.4409318 3.8069884v8.3826955h3.8801994v-8.7487521c0-3.953411-2.8369382-6.5707154-6.4242926-6.5707154-2.2329451-.0183029-3.6605657.8053244-4.5574043 2.3061564zm10.6888519-7.24792018v.60399335h1.262895v3.88019963h.750416v-3.88019963h1.189684v-.60399335zm8.071547 0-1.574043 3.58735438-1.500832-3.58735438h-.896838v4.48419298h.677204v-3.44093175l1.500832 3.44093175h.530782l1.427621-3.44093175v3.44093175h.677205v-4.48419298z" fill="#fa4616"/></svg>