<svg height="24" viewBox="0 0 20 24" width="20" xmlns="http://www.w3.org/2000/svg"><path d="m12.5394287 0c.1563721 0 .307251.06958008.4172974.18548583l5.9130249 6.20288086c.0985107.11022951.1680908.2550659.1680908.40576172v14.05792239c0 1.7276001-1.4260254 3.1479492-3.1536255 3.1479492h-12.7071533c-1.72760011 0-3.1536255-1.4203491-3.1536255-3.1479492v-17.70428468c0-1.72741701 1.42602539-3.14776612 3.1536255-3.14776612zm-.5740356 1.15942383h-8.7883301c-1.08984375 0-1.99420167.90435792-1.99420167 1.98834229v17.70428468c0 1.0900268.91021729 1.9885254 1.99420167 1.9885254h12.7071533c1.0898437 0 1.9942017-.8984986 1.9942017-1.9885254v-13.48974611h-3.368042c-1.4086304 0-2.5449829-1.13049319-2.5449829-2.53912355zm2.3362426 17.68121337c.3246461 0 .5855713.2607422.5855713.5797119 0 .3187866-.2609252.5797119-.5797119.5797119h-9.54785157c-.31878661 0-.57971189-.2609253-.57971189-.5797119 0-.3189697.26092528-.5797119.57971189-.5797119zm-4.77667231-10.85797118c.16223142 0 .31292724.06958007.4231567.18548582l3.39715581 3.64636236c.2202759.2318115.2028809.5971069-.0291138.8173828-.1100464.1043701-.2550659.1565551-.3942261.1565551-.156372 0-.307251-.0639038-.4231567-.1854858l-2.3884277-2.5682373v6.3305054c0 .3187866-.26074222.5797119-.57971197.5797119-.31878661 0-.5797119-.2609253-.5797119-.5797119v-6.3305054l-2.38842773 2.5682373c-.22027589.2318115-.58538817.2492066-.82891847.0289307-.2318115-.2145996-.24920653-.5855713-.02893064-.8173828l3.39715575-3.64636236c.11004638-.11590575.26074219-.18548582.42315675-.18548582zm3.59985351-5.9362793v2.77679442c0 .76519777.6203613 1.37969972 1.3855591 1.37969972h2.5739136z" fill="#2d4059" opacity=".5"/></svg>