<svg height="20" viewBox="0 0 113 20" width="113" xmlns="http://www.w3.org/2000/svg"><g fill="#696566" transform="matrix(1 0 0 -1 .285714 19.917293)"><path d="m5.33977444 1.61278195-4.81708647 13.41394735c-.06157895.1854699-.15321429.4303196-.15321429.6451128 0 .5813346.49116542 1.1333459 1.19492482 1.1333459.6143233 0 1.01458646-.398797 1.19785714-.9801316l3.99163534-11.55851505 4.02022552 11.59077065c.1832707.5498121.5520113.9486091 1.1626692.9486091h.1246241c.6458458 0 1.0446428-.398797 1.2279135-.9486091l3.9872369-11.59077065 4.0546804 11.61936095c.1532143.4933646.4882331.9200188 1.134812.9200188.6744361 0 1.1663346-.5190226 1.1663346-1.1032895 0-.2140602-.0931015-.4581767-.1532143-.6451128l-4.8478759-13.44473685c-.247782-.70229323-.7367481-1.07103383-1.2902256-1.07103383h-.0916353c-.6143233 0-1.0754323.3687406-1.2916917 1.07103383l-3.9564474 11.39870305-3.99090226-11.39870305c-.21479324-.70229323-.67663534-1.07103383-1.2887594-1.07103383h-.06451128c-.58133459 0-1.07030075.3687406-1.31734962 1.07103383" transform="translate(42.774643 .627519)"/><path d="m.20746241 15.5413534c0 .647312.52195488 1.2000564 1.16633458 1.2000564.67956767 0 1.20005639-.522688 1.20005639-1.2000564v-2.7219361c1.16706767 2.6434962 3.75558271 3.891203 5.47099624 3.891203.71035715 0 1.17146617-.5219549 1.17146617-1.1978571 0-.646579-.4281203-1.1054888-1.04830827-1.1978572-3.07528196-.3687406-5.59342105-2.6757519-5.59342105-7.25751878v-5.39035714c0-.64584587-.49116542-1.19785715-1.16706767-1.19785715-.67663534 0-1.19932331.52488722-1.19932331 1.19785715z" transform="translate(83.020883 .722086)"/><path d="m8.27210526.14661654c-4.27900376 0-7.77287594 3.31866541-7.77287594 8.18560151v.06304511c0 4.53265034 3.16398497 8.18413534 7.47157895 8.18413534 4.60595863 0 7.22892853-3.8003008 7.22892853-7.97080827 0-.64071429-.5168233-1.09889098-1.0856954-1.09889098h-11.26161659c.32842105-3.40516917 2.70654136-5.32144737 5.4812594-5.32144737 1.92874059 0 3.33992479.76093985 4.48646619 1.82610902.1810714.15028196.3914661.27197369.6641729.27197369.5703384 0 1.0241165-.45671053 1.0241165-1.00652256 0-.27270677-.1202255-.54761278-.3643421-.75800752-1.4742293-1.42877819-3.2233646-2.37518797-5.87199244-2.37518797m4.60815794 9.09828948c-.2419173 2.86268798-1.8693609 5.35516918-4.97250004 5.35516918-2.71093985 0-4.75917293-2.2806203-5.05680451-5.35516918z" transform="translate(91.560564 .895094)"/><path d="m.20746241 5.27819549v.06157895c0 3.33992481 2.7593233 5.11984966 6.77295112 5.11984966 2.02404136 0 3.46381577-.2756391 4.87646617-.67663538v.55421048c0 2.8480264-1.7520677 4.3215226-4.72178572 4.3215226-1.59445488 0-2.52253759-.2030639-3.68960526-.7228195-.15101504-.061579-.30569549-.0931015-.42518797-.0931015-.55201128 0-1.04464286.461109-1.04464286 1.0116541 0 .4889662.21332707.7917293.64511279.9830639 1.56073308.6773684 2.73733082.9024248 4.75917293.9024248 2.23590225 0 3.95278199-.5806015 5.11545109-1.746203 1.0746993-1.0725 1.6267106-2.6046429 1.6267106-4.6286842v-8.74421054c0-.67223684-.4904324-1.16413533-1.1377444-1.16413533-.6715038 0-1.1267481.49116541-1.1267481 1.10328947v1.51161654c-1.1054887-1.44343985-2.94625942-2.72853383-5.72977445-2.72853383-2.94406015.00219925-5.92037594 1.68609022-5.92037594 4.93511278m11.67947369 1.22644737v1.53287594c-1.1670677.33648496-2.73219926.67443609-4.66167294.67443609-2.96898496 0-4.62648496-1.2887594-4.62648496-3.27907895v-.06084586c0-1.99178572 1.83710526-3.15665414 3.98503759-3.15665414 2.91033835 0 5.30312031 1.77845865 5.30312031 4.28926692" transform="translate(66.241353 .689831)"/><path d="m4.60669173 15.5413534c-.51902256 1.1377443-1.80191729 1.6531015-2.99977444 1.1208834-1.1993233-.5329511-1.64063909-1.8627631-1.09889097-3.0012406l5.02968045-10.93246237c.79099624-1.71321428 1.62451128-2.6112406 3.18890977-2.6112406 1.67142856 0 2.40011276.97793233 3.19037596 2.6112406 0 0 4.3867669 9.55206767 4.4307519 9.65176697.044718.1011654.1854699.4097932.6319173.4068609.3775375-.0021993.6949624-.3034963.6949624-.7081579v-9.34093989c0-1.43977444.798327-2.62077068 2.3348684-2.62077068 1.5350752 0 2.3649248 1.18099624 2.3649248 2.62077068v7.64385339c0 1.4742293 1.0563722 2.4309022 2.4961466 2.4309022s2.3979135-.9911278 2.3979135-2.4309022v-7.64385339c0-1.43977444.8012594-2.62077068 2.3348685-2.62077068 1.5350752 0 2.3693233 1.18099624 2.3693233 2.62077068v7.64385339c0 1.4742293 1.0519737 2.4309022 2.4924812 2.4309022 1.4375752 0 2.3993797-.9911278 2.3993797-2.4309022v-7.64385339c0-1.43977444.8005263-2.62077068 2.3356015-2.62077068 1.5343421 0 2.367124 1.18099624 2.367124 2.62077068v8.69949249c0 3.1969737-2.570921 5.4365413-5.66453 5.4365413-3.0899436 0-5.025282-2.1376691-5.025282-2.1376691-1.028515 1.3334774-2.446297 2.1347368-4.8456767 2.1347368-2.5320677 0-4.7481767-2.1347368-4.7481767-2.1347368-1.0292481 1.3334774-2.7813158 2.1347368-4.2320864 2.1347368-2.2439662 0-4.0260903-.9867293-5.1132519-3.4726128l-3.21163536-7.57054508z" transform="translate(.571071 .89656)"/><path d="m.20819549 2.34586466v.01319549c0 1.06956767.86796992 1.97052632 1.95879699 1.97052632 1.10622181 0 1.96246241-.89142858 1.96246241-1.96246241v-.00806391c0-1.07323308-.86577068-1.97419173-1.96246241-1.97419173-1.1062218 0-1.95879699.88849624-1.95879699 1.96099624m3.54445489.01319549v.00513158c0 .87969925-.67956767 1.60105263-1.5856579 1.60105263-.89802631 0-1.58785714-.73381579-1.58785714-1.60618421v-.01026316c0-.8775.68176692-1.59885338 1.58785714-1.59885338.89509399 0 1.5856579.73234962 1.5856579 1.60911654" transform="translate(106.74344 13.144906)"/><path d="m.20892857 2.34586466c0 .11656015.09310151.20966166.21112782.20966166h.65390978c.24631578 0 .43618421-.06964286.55421052-.19426692.10776316-.10483083.16640978-.25657895.16640978-.4325188v-.00586466c0-.29909774-.15101504-.48163534-.37900376-.57766917l.28883458-.3518797c.04031955-.05278196.06744361-.09603384.06744361-.16054511 0-.11582707-.09823308-.19206767-.19793233-.19206767-.0931015 0-.15614662.04765037-.20526316.10776315l-.4068609.51462406h-.33355263v-.41345864c0-.11656015-.09016917-.20819549-.20746241-.20819549-.11802631 0-.21112782.09236842-.21112782.20819549v1.4962218zm.84157895-.71255639c.20379699 0 .31595865.10629699.31595865.26830827v.00659775c0 .17667293-.12022557.27197368-.32328948.27197368h-.41712406v-.54614662h.42445489z" transform="translate(107.95156 13.933703)"/></g></svg>