<svg xmlns="http://www.w3.org/2000/svg" width="20.4" height="20.4" viewBox="0 0 20.4 20.4"><defs><style>.a{fill:#fff;stroke:#fff;stroke-width:0.4px;}</style></defs><g transform="translate(0.2 0.2)"><path class="a" d="M10,0A10,10,0,1,0,20,10,10.011,10.011,0,0,0,10,0Zm0,18.845A8.845,8.845,0,1,1,18.845,10,8.855,8.855,0,0,1,10,18.845Z"/><path class="a" d="M146.508,135.731a.577.577,0,0,0-.782-.235l-6.5,3.5a.577.577,0,0,0-.235.235l-3.494,6.5a.577.577,0,0,0,.772.787h0l.007,0,6.5-3.492a.578.578,0,0,0,.235-.235l3.48-6.482c.008-.013.015-.026.021-.04l0-.009h0A.576.576,0,0,0,146.508,135.731Zm-9.087,8.855,2.22-4.129,1.909,1.909Zm4.946-3.037-1.909-1.909,4.129-2.22" transform="translate(-131.003 -131.001)"/></g></svg>