<svg xmlns="http://www.w3.org/2000/svg" width="20.693" height="18.223" viewBox="0 0 20.693 18.223"><defs><style>.a{fill:#fff;}</style></defs><g transform="translate(0 -26.576)"><g transform="translate(0 26.576)"><g transform="translate(0 0)"><g transform="translate(31.494 -375.938)"><path class="a" d="M-21.015,382.224a2.293,2.293,0,0,0-2.29,2.29,2.293,2.293,0,0,0,2.29,2.29,2.293,2.293,0,0,0,2.29-2.29A2.292,2.292,0,0,0-21.015,382.224Zm.852,2.265a.81.81,0,0,1-.222.586.816.816,0,0,1-.569.258h-.068a.776.776,0,0,1-.586-.222.813.813,0,0,1-.258-.572.819.819,0,0,1,.794-.843h.065a.807.807,0,0,1,.587.221A.814.814,0,0,1-20.163,384.489Z"/><path class="a" d="M-12.836,377.463l-13.257-1.505a2.184,2.184,0,0,0-1.7.484,2.2,2.2,0,0,0-.832,1.5l-.206,1.685h-.457a2.307,2.307,0,0,0-2.207,2.365v9.924a2.2,2.2,0,0,0,2.151,2.249h13.451a2.335,2.335,0,0,0,2.339-2.244V391.8a2.845,2.845,0,0,0,.8-.395,2.36,2.36,0,0,0,.821-1.539L-10.814,380A2.329,2.329,0,0,0-12.836,377.463Zm-12.3,10.225,2.655,2.34a2.648,2.648,0,0,0,1.654.616,2.746,2.746,0,0,0,1.346-.364l4.258-2.463V391.9a.691.691,0,0,1-.718.592H-29.282a.525.525,0,0,1-.375-.142.565.565,0,0,1-.164-.432V390.3l3.627-2.669A.815.815,0,0,1-25.133,387.688Zm3.767,1.08-2.674-2.358a2.5,2.5,0,0,0-1.641-.615,2.5,2.5,0,0,0-1.493.5l-2.646,1.93v-6.258a.63.63,0,0,1,.55-.671h13.314a.761.761,0,0,1,.733.7l0,3.878-5.123,2.984A.885.885,0,0,1-21.366,388.768Zm-5.784-9.146.171-1.478a.767.767,0,0,1,.219-.409.764.764,0,0,1,.489-.135l13.242,1.531a.623.623,0,0,1,.557.668l-1.076,9.325v-7.148a2.442,2.442,0,0,0-2.389-2.354Z"/></g></g></g></g></svg>