<svg xmlns="http://www.w3.org/2000/svg" width="46.406" height="54.468" viewBox="0 0 46.406 54.468"><defs><style>.a,.b{fill:#090908;}.b{stroke:#f4f7fb;stroke-width:0.4px;}</style></defs><g transform="translate(-69.534 0.268)"><g transform="translate(101.962 12.499)"><path class="a" d="M327.4,100.709l-.049.025Z" transform="translate(-327.348 -100.709)"/></g><g transform="translate(102.011 12.465)"><g transform="translate(0)"><path class="a" d="M327.811,100.432l-.068.035Z" transform="translate(-327.743 -100.432)"/></g></g><g transform="translate(101.663 12.656)"><g transform="translate(0)"><path class="a" d="M325,101.975l-.039.02Z" transform="translate(-324.957 -101.975)"/></g></g><g transform="translate(102.355 12.299)"><path class="a" d="M330.491,99.124l.051-.026Z" transform="translate(-330.491 -99.098)"/></g><g transform="translate(102.079 12.444)"><path class="a" d="M328.328,100.263l-.041.021Z" transform="translate(-328.287 -100.263)"/></g><g transform="translate(102.272 12.325)"><path class="a" d="M329.83,99.349l.083-.042Z" transform="translate(-329.83 -99.307)"/></g><g transform="translate(102.163 12.389)"><path class="a" d="M329.022,99.82l-.066.034Z" transform="translate(-328.956 -99.82)"/></g><g transform="translate(101.568 12.676)"><path class="a" d="M324.2,102.181l.1-.048Z" transform="translate(-324.195 -102.133)"/></g><g transform="translate(102.229 12.367)"><path class="a" d="M329.485,99.667l.026-.013.017-.009Z" transform="translate(-329.485 -99.645)"/></g><g transform="translate(69.737 0)"><g transform="translate(0 0)"><path class="b" d="M115.073,2.625c-6.3-5.409-18.139-2.011-22.3,6.1C88.429.584,76.517-2.459,70.378,2.98A1.9,1.9,0,0,0,70.79,6.1c5.013,2.47,15.689,7.726,15.9,7.828-9.328.837-16.9,11.524-13.575,19.511a1.887,1.887,0,0,0,3.078.618l2.653-2.66,6.625-6.642a5.215,5.215,0,0,0,4.265,1.577c-1.359,20.926-6.259,25.321-6.371,25.716H74.936a.975.975,0,0,0,0,1.95h34.6a.975.975,0,0,0,0-1.95H93.412c.722-2.261,1.387-4.68,1.98-7.21a.973.973,0,1,0-1.893-.446c-.634,2.7-1.35,5.276-2.132,7.656H85.45a37.187,37.187,0,0,0,2.877-6.816h1.8a.975.975,0,0,0,0-1.95H88.9c1.118-3.973,1.549-8.211,2.3-12.53.583-2.715-.027-3.7.524-5.024a5.29,5.29,0,0,0,1.387-1.088,5.212,5.212,0,0,0,2.44,1.517q0,1-.026,2.014H93.582a.975.975,0,0,0,0,1.95h1.881c-.191,5.169.45,1.046-.376,6.178h-1.4a.975.975,0,0,0,0,1.95h1.071q-.212,1.188-.443,2.362a.973.973,0,1,0,1.909.38c1.555-7.887,1.234-6.834,1.267-14.663a5.231,5.231,0,0,0,3.954-2.511l10.245,7.095a1.886,1.886,0,0,0,2.918-1.164c.813-3.77-.655-7.749-3.234-10.785a.974.974,0,1,0-1.481,1.265c2.632,3.1,3.358,6.466,2.829,9.028l-3.326-2.3.829-1.155a.974.974,0,1,0-1.579-1.139l-.849,1.184-2.564-1.775,1.939-2.586a.973.973,0,1,0-1.555-1.171l-1.985,2.648-1.5-1.039a5.245,5.245,0,0,0-3.207-5.665,5.212,5.212,0,0,0,.019-1.355,14.351,14.351,0,0,1,8.264,2.847.975.975,0,0,0,1.14-1.581,16.718,16.718,0,0,0-7.872-3.129l.066-.034,4.8-2.458h0c4.9-2.512-1.855.948,9.37-4.8a1.9,1.9,0,0,0,.363-3.127Zm-31.6,7.549,1.446-2.195A.973.973,0,1,0,83.294,6.9l-1.583,2.4L77.153,7.061l1.119-2.206a.972.972,0,1,0-1.732-.884L75.408,6.2,71.726,4.389c5.568-4.834,16.845-1.246,19.856,6.356a5.265,5.265,0,0,0-2.405,2.238Zm3.377,13.2a3.268,3.268,0,0,1-.87-1.948.973.973,0,1,0-1.937.179,5.294,5.294,0,0,0,.351,1.472l-.989.992-2.945-2.841a.973.973,0,0,0-1.349,1.4l2.918,2.816-3.12,3.128-.783-.857a.974.974,0,1,0-1.434,1.317l.84.921-2.652,2.659c-2.992-7.408,5.282-17.43,13.663-16.759,0,.023,0,.046.005.069a5.194,5.194,0,0,0-2.864,1.357.974.974,0,0,0,1.325,1.428,3.255,3.255,0,0,1,2.067-.876A5.248,5.248,0,0,0,92.48,20.59,3.289,3.289,0,0,1,86.847,23.374ZM92.086,12.68h.04c0-.008,0-.014,0-.021a3.28,3.28,0,1,1-.036.021Zm7.753,10.028a3.274,3.274,0,0,1-5.661.133,5.238,5.238,0,0,0,.274-2.14,5.235,5.235,0,0,0,3.838-2.592A3.292,3.292,0,0,1,99.838,22.708Zm9.955-16.628-.777-1.651a.973.973,0,1,0-1.758.832l.8,1.706-3.614,1.851L102.993,6a.973.973,0,1,0-1.728.9l1.45,2.81-4.9,2.509a5.213,5.213,0,0,0-3.645-1.928c3.212-7.458,14.1-10.836,19.577-6.233Z" transform="translate(-69.737 0)"/></g></g><g transform="translate(102.121 12.422)"><g transform="translate(0)"><path class="a" d="M328.618,100.111l.03-.015.012-.006Z" transform="translate(-328.618 -100.09)"/></g></g><g transform="translate(101.567 12.724)"><g transform="translate(0)"><path class="a" d="M324.189,102.522h0Z" transform="translate(-324.188 -102.522)"/></g></g><g transform="translate(101.508 12.724)"><g transform="translate(0)"><path class="a" d="M323.777,102.526Z" transform="translate(-323.718 -102.526)"/></g></g><g transform="translate(101.702 12.524)"><path class="a" d="M326.536,100.963l.1-.052Z" transform="translate(-326.377 -100.911)"/><path class="a" d="M325.266,101.658l.044-.022.045-.023Z" transform="translate(-325.266 -101.526)"/><path class="a" d="M326.019,101.338l-.045.023.07-.036Z" transform="translate(-325.885 -101.274)"/></g></g></svg>