<svg xmlns="http://www.w3.org/2000/svg" width="65.639" height="71.106" viewBox="0 0 65.639 71.106">
  <g id="Group_6589" data-name="Group 6589" transform="translate(-278.231 0)">
    <path id="Path_93" data-name="Path 93" d="M350.134,389.424h-7.229v-3.829a2.782,2.782,0,0,0-5.562,0v3.829H316.205v-3.829a2.782,2.782,0,0,0-5.563,0v3.829h-7.234a9.388,9.388,0,0,0-9.454,9.3V444.67a9.387,9.387,0,0,0,9.454,9.3h46.726a9.39,9.39,0,0,0,9.459-9.3V398.723A9.391,9.391,0,0,0,350.134,389.424Zm-46.726,5.47h7.234v3.829a2.782,2.782,0,0,0,5.563,0v-3.829h21.138v3.829a2.782,2.782,0,0,0,5.562,0v-3.829h7.229a3.867,3.867,0,0,1,3.9,3.829v10.39H299.517v-10.39A3.865,3.865,0,0,1,303.409,394.894Zm46.726,53.6H303.409a3.865,3.865,0,0,1-3.891-3.826V414.583h54.514V444.67A3.866,3.866,0,0,1,350.134,448.5Z" transform="translate(-15.724 -382.86)" fill="#090908" opacity="0.03"/>
    <path id="Path_92" data-name="Path 92" d="M314.5,385.26h-2.643v-1.4a1.017,1.017,0,0,0-2.034,0v1.4h-7.729v-1.4a1.017,1.017,0,0,0-2.034,0v1.4h-2.645a3.433,3.433,0,0,0-3.457,3.4v16.8a3.432,3.432,0,0,0,3.457,3.4H314.5a3.433,3.433,0,0,0,3.459-3.4v-16.8A3.434,3.434,0,0,0,314.5,385.26Zm-17.085,2h2.645v1.4a1.017,1.017,0,0,0,2.034,0v-1.4h7.729v1.4a1.017,1.017,0,0,0,2.034,0v-1.4H314.5a1.414,1.414,0,0,1,1.425,1.4v3.8H295.989v-3.8A1.413,1.413,0,0,1,297.412,387.26Zm17.085,19.6H297.412a1.413,1.413,0,0,1-1.423-1.4v-11h19.932v11A1.414,1.414,0,0,1,314.5,406.859Z" transform="translate(19.045 -357.86)" fill="#090908"/>
  </g>
</svg>
