<svg xmlns="http://www.w3.org/2000/svg" width="54" height="50" viewBox="0 0 54 50"><defs><style>.a{fill:#090908;}</style></defs><path class="a" d="M186.566,208.268l8.486,5.891a1.24,1.24,0,0,0,1.3.075,1.275,1.275,0,0,0,.643-.854H201.4v4.508a1.282,1.282,0,0,0,.547,1.052l9.961,6.911-.747,1.338-3.007-.024h-.01a1.252,1.252,0,0,0-.8.292l-.5.422a1.289,1.289,0,0,0-.174,1.788,2.751,2.751,0,0,1,.6,1.718,2.5,2.5,0,0,1-1.563,2.4,1.269,1.269,0,0,0-.79,1.02h-.044a3.629,3.629,0,0,0-1.161.26c-.02-.037-.04-.073-.063-.108a1.366,1.366,0,0,0,.119-.24,1.286,1.286,0,0,0-.343-1.407c-.04-.038-.083-.073-.145-.121a2.749,2.749,0,0,1-.662-1.825,2.891,2.891,0,0,1,.585-1.723,1.293,1.293,0,0,0,.133-1.34,1.256,1.256,0,0,0-1.128-.713l-31.579-.04h0a1.256,1.256,0,0,0-1.129.713,1.292,1.292,0,0,0,.136,1.344,2.769,2.769,0,0,1,.566,1.691,2.8,2.8,0,0,1-.677,1.845c-.045.036-.091.071-.135.11a1.285,1.285,0,0,0-.367,1.41,1.194,1.194,0,0,0,.146.286l-.03.052a3.7,3.7,0,0,0-1.213-.255h-.009a1.27,1.27,0,0,0-.819-1.038,2.374,2.374,0,0,1-.843-.532,2.75,2.75,0,0,1-.7-1.873,2.888,2.888,0,0,1,.58-1.714,1.289,1.289,0,0,0-.045-1.608l-.614-.723a1.248,1.248,0,0,0-.945-.442l-3.36-.027-.509-.658,25.914-17.859M182.1,240.783l8.292.01h.045v.629a1.292,1.292,0,0,1,0,1.4v4.112H182.1v-4.177a1.287,1.287,0,0,1,0-1.405v-.566m-12.91,1.12a1.307,1.307,0,0,0-.228.388,1.288,1.288,0,0,0,.348,1.409,2.658,2.658,0,0,1,.888,2.01,2.6,2.6,0,0,1-1.283,2.272,1.28,1.28,0,0,0-.621,1.256c-.1-.014-.2-.023-.3-.029h-.106a1.274,1.274,0,0,0-.762-1.079,2.608,2.608,0,0,1-1.37-1.378,2.656,2.656,0,0,1,1.353-3.472,1.277,1.277,0,0,0,.755-1.085h.054a3.588,3.588,0,0,0,1.268-.288m34.464.064a3.622,3.622,0,0,0,1.212.282l.07,0h.03a1.276,1.276,0,0,0,.756,1.1,2.6,2.6,0,0,1,1.543,2.4,2.861,2.861,0,0,1-.684,1.86,2.483,2.483,0,0,1-.883.551,1.273,1.273,0,0,0-.826,1.042,3.7,3.7,0,0,0-.379.027.971.971,0,0,0,.005-.1,1.276,1.276,0,0,0-.65-1.116,2.613,2.613,0,0,1-1.239-2.261,2.655,2.655,0,0,1,.864-1.97,1.289,1.289,0,0,0,.335-1.405,1.3,1.3,0,0,0-.19-.338c.013-.024.024-.048.035-.073m-33.246,8.4,31.892.041a3.62,3.62,0,0,0,.5,5.255l-32.548-.041a3.692,3.692,0,0,0,1.1-2.666,3.63,3.63,0,0,0-.947-2.589m16.161-43.419a1.011,1.011,0,0,0-.57.176l-26.321,18.139a1.119,1.119,0,0,0-.377.638.931.931,0,0,0,.164.757l1.084,1.4,3.967.031.614.723a4.155,4.155,0,0,0-.839,2.481,4.042,4.042,0,0,0,1.03,2.74,3.664,3.664,0,0,0,1.343.871,3.534,3.534,0,0,0-1.343.879,4.148,4.148,0,0,0-1.03,2.742,3.874,3.874,0,0,0,2.323,3.585,3.935,3.935,0,0,0-2.007,5.148,3.892,3.892,0,0,0,2.033,2.047,3.54,3.54,0,0,0-1.375.893,4.148,4.148,0,0,0-1.03,2.742,4.013,4.013,0,0,0,.928,2.543h-3.105v1.4l48.513.061v-1.405H207.6a3.99,3.99,0,0,0,.917-2.55,3.827,3.827,0,0,0-2.4-3.62,3.77,3.77,0,0,0,1.373-.872,4.153,4.153,0,0,0,1.03-2.742,3.878,3.878,0,0,0-2.3-3.571,3.778,3.778,0,0,0,2.3-3.6,4.034,4.034,0,0,0-1.03-2.742,3.642,3.642,0,0,0-1.334-.867,3.769,3.769,0,0,0,2.365-3.622,4.017,4.017,0,0,0-.88-2.485l.5-.422,3.25.027h.218a.887.887,0,0,0,.543-.467l.976-1.75c.013-.019.023-.04.034-.059a.933.933,0,0,0-.306-1.225l-10.2-7.079V212.1h-6.893v1l-8.626-5.988a1.015,1.015,0,0,0-.571-.176Zm16.018,27.32-32.389-.041c.074-.064.156-.117.225-.187a4.15,4.15,0,0,0,1.03-2.74,4.042,4.042,0,0,0-.83-2.473l31.579.039a4.158,4.158,0,0,0-.846,2.493,4.04,4.04,0,0,0,1.031,2.739c.063.065.135.111.2.17Zm-21.744,7.086-10.509-.013c.029-.027.062-.047.089-.074a4.153,4.153,0,0,0,1.03-2.742,4.046,4.046,0,0,0-1.03-2.742c-.059-.06-.126-.1-.191-.162l32.362.042c-.069.062-.143.111-.209.178a4.147,4.147,0,0,0-1.033,2.74,4.044,4.044,0,0,0,1.034,2.748c.04.041.087.07.126.107l-10.817-.013v-4.883H180.839v4.811Zm-12.97-.432a2.456,2.456,0,0,1,0-4.9,2.465,2.465,0,0,1,1.628.7,2.573,2.573,0,0,1,.652,1.7,2.4,2.4,0,0,1-2.279,2.5Zm37.065.059a2.451,2.451,0,1,1,1.628-4.2,2.573,2.573,0,0,1,.652,1.7,2.4,2.4,0,0,1-2.279,2.5Zm-14.543-1.458-8.3-.01v-1.623h8.3v1.633Zm12.846,9.611-33.7-.042a3.881,3.881,0,0,0,1.913-3.389,3.933,3.933,0,0,0-1.317-2.957l10.7.014v4.986l.377.467h10.472v-5.388l10.943.014a3.936,3.936,0,0,0-1.282,2.923,3.88,3.88,0,0,0,1.887,3.373h0Zm1.7,5.982c-.045,0-.091,0-.136-.005a2.315,2.315,0,0,1,.133-4.624,2.382,2.382,0,0,1,2.279,2.451h0a2.3,2.3,0,0,1-2.277,2.179Zm-37.122.272a2.456,2.456,0,0,1,0-4.9h.109a2.322,2.322,0,0,1,2.17,2.451,2.383,2.383,0,0,1-2.279,2.45Z" transform="translate(-159.276 -206.943)"/></svg>