<svg xmlns="http://www.w3.org/2000/svg" width="56" height="50" viewBox="0 0 56 50"><defs><style>.a{fill:#090908;}</style></defs><g transform="translate(-224.641 -205.794)"><path class="a" d="M277.4,242.037a2.048,2.048,0,0,0-1.4.552,5.4,5.4,0,0,1-7.346,0,2.076,2.076,0,0,0-2.784-.016,5.4,5.4,0,0,1-7.366.016,2.065,2.065,0,0,0-2.781-.011,5.4,5.4,0,0,1-7.362.011,2.065,2.065,0,0,0-2.779-.012,5.4,5.4,0,0,1-7.363.012,2.076,2.076,0,0,0-2.784-.016,5.4,5.4,0,0,1-7.366.016,2.049,2.049,0,0,0-2.8,0c-.042.039-.085.083-.127.13a1.994,1.994,0,0,0,.132,2.785,9.5,9.5,0,0,0,11.542,1.083,9.514,9.514,0,0,0,10.142,0,9.523,9.523,0,0,0,10.149,0,9.514,9.514,0,0,0,10.142,0A9.5,9.5,0,0,0,278.8,245.5c.043-.04.087-.084.129-.131a1.992,1.992,0,0,0-.132-2.785A2.043,2.043,0,0,0,277.4,242.037Zm.641,2.518c-.017.017-.033.035-.051.051a8.313,8.313,0,0,1-10.737.51,8.332,8.332,0,0,1-10.142,0,8.345,8.345,0,0,1-10.151,0,8.332,8.332,0,0,1-10.142,0,8.317,8.317,0,0,1-10.737-.51.767.767,0,0,1-.05-1.072q.025-.027.05-.051a.865.865,0,0,1,1.181,0,6.581,6.581,0,0,0,8.961,0,.892.892,0,0,1,1.189,0,6.581,6.581,0,0,0,8.961,0,.882.882,0,0,1,1.181,0,6.581,6.581,0,0,0,8.961,0,.882.882,0,0,1,1.181,0,6.581,6.581,0,0,0,8.961,0,.892.892,0,0,1,1.189,0,6.581,6.581,0,0,0,8.961,0,.865.865,0,0,1,1.181,0A.766.766,0,0,1,278.043,244.555Z" transform="translate(0.001 7.741)"/><path class="a" d="M243.273,225.765h.106a.8.8,0,0,0-.053-1.6l-.054,0H232.9l-.053,0-.053,0a.8.8,0,0,0,.051,1.595h.38v6.066H232.9l-.053,0-.053,0a.8.8,0,0,0,.051,1.595h10.536a.8.8,0,0,0-.053-1.6l-.054,0-.325,0v-6.061Zm-2,0v6.056H234.9v-6.056Z" transform="translate(1.456 3.925)"/><path class="a" d="M256.047,225.765h.107a.8.8,0,0,0-.053-1.6l-.054,0H245.67l-.053,0-.053,0a.8.8,0,0,0,.051,1.595H246v6.066h-.327l-.053,0-.053,0a.8.8,0,0,0,.051,1.595h10.536a.8.8,0,0,0-.053-1.6l-.054,0-.334,0v-6.061Zm-2,0v6.056h-6.369v-6.056Z" transform="translate(3.966 3.925)"/><path class="a" d="M278.791,238.306l-.041,0-.093,0-.085,0H274.04l-7.567-9.765v-4.255a2.011,2.011,0,0,0,1.57-1.908v-2.22a3.518,3.518,0,0,0-1.77-3.028l-.272-.153h-.366l-1.871-1.365a17.985,17.985,0,0,1-3.979-4l-.359-.5h-.007l-.627-1.021a16.373,16.373,0,0,1-1.417-2.939,2.035,2.035,0,0,0-1.912-1.359H238.917a2.044,2.044,0,0,0-1.931,1.374,16.254,16.254,0,0,1-1.406,2.928l-.621,1.018h-.016l-.358.5a17.967,17.967,0,0,1-3.981,4l-1.87,1.365h-.371l-.27.153a3.513,3.513,0,0,0-1.773,3.011v2.191a2.034,2.034,0,0,0,1.567,1.959v20.453a2.028,2.028,0,0,0-2.615.141c-.042.039-.085.084-.127.13a1.993,1.993,0,0,0,.132,2.785,9.514,9.514,0,0,0,6.482,2.549,9.416,9.416,0,0,0,5.06-1.46,9.544,9.544,0,0,0,10.142,0,9.548,9.548,0,0,0,10.151,0,9.543,9.543,0,0,0,10.14,0A9.511,9.511,0,0,0,278.8,247.8c.043-.04.087-.084.128-.13a2,2,0,0,0-.13-2.786,2.049,2.049,0,0,0-2.795,0,5.392,5.392,0,0,1-7.345,0,2.051,2.051,0,0,0-2.177-.4v-9.337l4.948,6.386a2.032,2.032,0,0,0,1.608.79h5.623a2.013,2.013,0,0,0,.134-4.019Zm-51.274-15.975v-2.175a2.289,2.289,0,0,1,1.157-1.966H235a.8.8,0,0,0-.053-1.6l-.054,0H231.3a19.183,19.183,0,0,0,4.246-4.269h4.47a.8.8,0,0,0-.053-1.6l-.054,0H236.6a17.4,17.4,0,0,0,1.516-3.161.839.839,0,0,1,.79-.565h16.561a.836.836,0,0,1,.788.565,17.586,17.586,0,0,0,1.524,3.16h-3.325l-.053,0-.053,0a.8.8,0,0,0,.051,1.595h4.422a19.235,19.235,0,0,0,4.246,4.269h-3.589l-.053,0-.053,0a.8.8,0,0,0,.051,1.595h6.268a2.285,2.285,0,0,1,1.156,1.967v2.178a.815.815,0,0,1-.809.792h-37.71A.816.816,0,0,1,227.517,222.332Zm39.736,23.214a.875.875,0,0,1,.595.233,6.578,6.578,0,0,0,8.961,0,.865.865,0,0,1,1.181,0,.766.766,0,0,1,.051,1.072l-.051.051a8.328,8.328,0,0,1-10.737.518,8.365,8.365,0,0,1-10.142,0,8.368,8.368,0,0,1-10.151,0,8.36,8.36,0,0,1-10.142,0,8.328,8.328,0,0,1-10.737-.518.767.767,0,0,1-.05-1.072q.025-.027.05-.051a.865.865,0,0,1,1.181,0,6.578,6.578,0,0,0,8.961,0,.875.875,0,0,1,1.189,0,6.578,6.578,0,0,0,8.961,0,.865.865,0,0,1,1.181,0,6.578,6.578,0,0,0,8.961,0,.865.865,0,0,1,1.181,0,6.578,6.578,0,0,0,8.961,0A.875.875,0,0,1,267.253,245.545Zm11.4-4.433h-5.623a.85.85,0,0,1-.668-.326l-7.085-9.143v13.188a4.864,4.864,0,0,1-6.4-.175,2.584,2.584,0,0,0-3.543,0,4.853,4.853,0,0,1-6.6-.009,2.6,2.6,0,0,0-3.543.009,4.865,4.865,0,0,1-6.6,0,2.6,2.6,0,0,0-3.551,0,4.86,4.86,0,0,1-5.963.494V224.72h36.192v4.239l8.182,10.558H278.6l.054,0,.053,0a.8.8,0,0,1-.053,1.595Z" transform="translate(0 0)"/><path class="a" d="M243.216,215.063h1a.8.8,0,0,0-.053-1.6l-.054,0h-.838l-.053,0-.053,0a.8.8,0,0,0,.051,1.595Z" transform="translate(3.494 1.639)"/><path class="a" d="M239.016,215.063h1a.8.8,0,0,0-.053-1.6l-.054,0h-.838l-.053,0-.053,0a.8.8,0,0,0,.051,1.595Z" transform="translate(2.669 1.639)"/><path class="a" d="M247.416,215.063h1a.8.8,0,0,0-.053-1.6l-.054,0h-.837l-.053,0-.053,0a.8.8,0,0,0,.051,1.595Z" transform="translate(4.319 1.639)"/></g></svg>