<svg xmlns="http://www.w3.org/2000/svg" width="54" height="54" viewBox="0 0 54 54"><defs><style>.a{fill:#090908;}</style></defs><g transform="translate(-274.862 -195.403)"><path class="a" d="M327.9,229.614a2.666,2.666,0,0,0-.611.077c-26.746,6.326-24.5,6.233-51.246,12.562-1.588.378-1.487,1.547-.223,1.547a2.7,2.7,0,0,0,.615-.078c26.743-6.326,24.5-6.236,51.246-12.562C329.271,230.784,329.167,229.614,327.9,229.614Z" transform="translate(0 5.604)"/><path class="a" d="M285.084,199.892a.936.936,0,0,0,.835-1.031l-.3-2.627a.945.945,0,0,0-1.878.206l.3,2.627A.943.943,0,0,0,285.084,199.892Z" transform="translate(1.574)"/><path class="a" d="M278.3,201.57l2.448,1.078a.947.947,0,0,0,1.246-.469v0a.926.926,0,0,0-.477-1.229l-2.451-1.079a.945.945,0,0,0-1.243.473A.926.926,0,0,0,278.3,201.57Z" transform="translate(0.51 0.718)"/><path class="a" d="M281.065,206.037l0,0-2.175,1.539a.928.928,0,0,0-.217,1.3.951.951,0,0,0,1.317.214l2.176-1.542a.925.925,0,0,0,.218-1.3v0A.948.948,0,0,0,281.065,206.037Z" transform="translate(0.644 1.713)"/><path class="a" d="M284.159,208.533a4.734,4.734,0,0,0,6.21-2.356,4.628,4.628,0,0,0-2.383-6.139,4.726,4.726,0,0,0-6.211,2.356A4.629,4.629,0,0,0,284.159,208.533Zm-.657-5.379a2.828,2.828,0,0,1,3.717-1.408,2.769,2.769,0,0,1,1.425,3.672,2.831,2.831,0,0,1-3.717,1.409A2.77,2.77,0,0,1,283.5,203.154Z" transform="translate(1.154 0.693)"/><path class="a" d="M285.971,208a.935.935,0,0,0-.835,1.029l.3,2.629a.944.944,0,0,0,1.877-.206l-.3-2.627A.942.942,0,0,0,285.971,208Z" transform="translate(1.822 2.063)"/><path class="a" d="M289.391,205.493a.927.927,0,0,0,.477,1.23l2.448,1.078a.947.947,0,0,0,1.243-.473.928.928,0,0,0-.477-1.23l-2.448-1.077A.946.946,0,0,0,289.391,205.493Z" transform="translate(2.563 1.562)"/><path class="a" d="M288.962,201.49a.95.95,0,0,0,1.313.221l.008-.006,2.17-1.544a.927.927,0,0,0,.214-1.3.952.952,0,0,0-1.317-.212l-2.175,1.539a.925.925,0,0,0-.217,1.3Z" transform="translate(2.47 0.503)"/><path class="a" d="M279.487,226.185a.945.945,0,0,0,.467.55.934.934,0,0,0,.718.056.946.946,0,0,0,.6-1.192l-2.125-6.568,13.584,6.75c-3.444.843-6.885,1.689-10.347,2.507-.4.1-3.927,14.577-3.618,14.577h0c14.3-3.383,43.873-10.467,43.968-10.527.067-.036-11.749-10.859-12.239-10.859H310.5c-5.035,1.191-10.042,2.418-15.05,3.646l-2.792-11.985a.945.945,0,0,0-1.181-.609l-.006,0a.946.946,0,0,0-.612,1.187L293,223.773l-12.524-6.188,6.1-1.984a.945.945,0,0,0-.577-1.8h0l-8.614,2.809a.943.943,0,0,0-.6,1.188Zm30.68-2.953c1.592,1.28,6.429,5.64,9.262,8.24-7.221,1.746-26.442,6.346-38.621,9.235.717-3.25,2.176-9.069,2.788-11.029,4.439-1.054,8.911-2.151,13.245-3.213C301.2,225.4,305.7,224.292,310.167,223.232Z" transform="translate(0.332 2.798)"/></g></svg>