<svg xmlns="http://www.w3.org/2000/svg" width="52" height="54" viewBox="0 0 52 54"><defs><style>.a{fill:#090908;}</style></defs><g transform="translate(-8.871 -0.002)"><path class="a" d="M56.543,10.1a.79.79,0,1,0-1.247.97,19.169,19.169,0,0,1,3.981,10.906l-10.6-2.846A44.474,44.474,0,0,0,48.749,5.69a18.862,18.862,0,0,1,4.13,2.787.79.79,0,0,0,1.047-1.184A20.553,20.553,0,0,0,46.851,3.2l.762-2.142A.789.789,0,1,0,46.127.527l-.794,2.23A20.508,20.508,0,0,0,22.518,12.7a.812.812,0,0,0-.106.452l.28,4.124a1.845,1.845,0,0,0,1.36,1.658l7.792,2.093a1.845,1.845,0,0,0,2-.754l1.013-1.512.123,1.817a1.845,1.845,0,0,0,1.36,1.658l3.134.842L35.067,39.587l-7.381-.021h0a.791.791,0,0,0,0,1.582l15.453.045h.008a2.906,2.906,0,0,0,2.066-.87l5.561-5.689a4.336,4.336,0,0,1,4.449-1.077l1.691.565L46.365,44.766a2.379,2.379,0,0,1-1.68.7H14.141a4.081,4.081,0,0,1,1.115-3.234,3.762,3.762,0,0,1,2.677-1.109h.013L24,41.146h0a.791.791,0,0,0,0-1.582l-6.053-.022a5.319,5.319,0,0,0-3.809,1.571,6.507,6.507,0,0,0-1.579,4.83,1.107,1.107,0,0,0,1.1,1.107h1.9l-1.632,3.6a2.37,2.37,0,0,0-.075,1.775H9.66A.791.791,0,0,0,9.66,54H58.216a.791.791,0,0,0,0-1.582H50.808a2.37,2.37,0,0,0-.075-1.775l-2.5-5.516L58.568,34.693a1.119,1.119,0,0,0-.435-1.831l-2.415-.807a5.922,5.922,0,0,0-6.076,1.47l-5.561,5.689a1.321,1.321,0,0,1-.939.4h0L36.7,39.591l4.3-16.1,3.134.842a1.845,1.845,0,0,0,2-.754l1.013-1.512.123,1.817a1.845,1.845,0,0,0,1.36,1.658l7.792,2.093a1.845,1.845,0,0,0,2-.754l2.3-3.431A.813.813,0,0,0,60.869,23,20.741,20.741,0,0,0,56.543,10.1ZM16.087,52.42a.783.783,0,0,1-.327-.071A.793.793,0,0,1,15.37,51.3l1.93-4.251h1.735l-2.228,4.907a.791.791,0,0,1-.719.464Zm15.55,0H18.33l2.438-5.371h12.3Zm1.634,0,1.435-5.371H43.9l2.438,5.371ZM49.3,51.3a.793.793,0,0,1-.393,1.049.772.772,0,0,1-.324.071.794.794,0,0,1-.72-.464l-2.276-5.013a3.987,3.987,0,0,0,1.435-.661ZM32.539,19.391a.263.263,0,0,1-.286.108l-7.792-2.093a.264.264,0,0,1-.194-.237l-.2-3.019,10.161,2.729ZM35,15.449,24.411,12.605A18.957,18.957,0,0,1,42.1,3.811,35.417,35.417,0,0,0,35,15.449Zm9.835,7.244a.263.263,0,0,1-.286.108l-7.792-2.093a.264.264,0,0,1-.194-.237l-.2-3.019,10.161,2.729Zm2.315-3.98L36.529,15.86A33.831,33.831,0,0,1,44.014,4.083a18.551,18.551,0,0,1,3.018.859,42.862,42.862,0,0,1,.117,13.771ZM57.126,26a.263.263,0,0,1-.286.108L49.048,24.01a.263.263,0,0,1-.194-.237l-.2-3.019L58.81,23.483Z" transform="translate(0 0)"/></g></svg>