<svg xmlns="http://www.w3.org/2000/svg" width="38" height="38" viewBox="0 0 38 38"><defs><style>.a{fill:#fff;}</style></defs><path class="a" d="M338.518,450.357V462.11h-15.1V444.733l.524-.457a13.58,13.58,0,0,0,4.492,2.078,2.876,2.876,0,0,0,2.534,1.53,2.918,2.918,0,1,0-2.892-3.076,13.175,13.175,0,0,1-3.048-1.479l5.941-5.188,7.549,6.592v3.7h1.393v-4.024a.7.7,0,0,0-.239-.53l-8.248-7.2a.7.7,0,0,0-.913,0l-1.9,1.659a25.077,25.077,0,0,0-2.282-2.326c-.313-.278-.651-.563-1.036-.87a8.951,8.951,0,1,0-15.22,5.764l-1.9,3.921,1.251.613,1.742-3.6a8.752,8.752,0,0,0,1.289.779,8.9,8.9,0,0,0,1.413.547l-3.78,7.816-.363-.179a.692.692,0,0,0-.929.323l-.966,2a.7.7,0,0,0,.321.936l.363.178-.354.732-.362-.178a.679.679,0,0,0-.533-.032.69.69,0,0,0-.4.356l-.963,1.992a.7.7,0,0,0,.32.937l.362.178-.531,1.1-2.011.7-.692-2.024,5.235-10.824-1.252-.613-5.36,11.083a.7.7,0,0,0-.034.538l1.014,2.961a.7.7,0,0,0,.354.4.679.679,0,0,0,.531.032l2.941-1.02a.684.684,0,0,0,.4-.358l.963-1.99a.7.7,0,0,0-.32-.938l-.364-.178.355-.731.362.178a.694.694,0,0,0,.93-.323l.964-1.994a.7.7,0,0,0,.032-.536.684.684,0,0,0-.353-.4l-.362-.179.354-.73.361.178a.689.689,0,0,0,.531.033.7.7,0,0,0,.4-.357l4.24-8.768a8.878,8.878,0,0,0,5.856-1.322c.5.44,1.046.88,1.622,1.311l-.5.435a.7.7,0,0,0-.24.53v18.4a.7.7,0,0,0,.694.7h16.5a.7.7,0,0,0,.693-.7V450.357Zm-16.229-9.076a8.9,8.9,0,0,0,2.749-4.534c.122.1.245.209.37.321a23.4,23.4,0,0,1,2.154,2.19l-3.728,3.254C323.326,442.139,322.807,441.726,322.29,441.281ZM319.6,427.645l.083.041a7.571,7.571,0,0,1,4.226,6.421,17.934,17.934,0,0,0-3.486-1.937,3.439,3.439,0,1,0-4.832,3.977,3.433,3.433,0,0,0,4.606-1.6,3.278,3.278,0,0,0,.267-.84,18.225,18.225,0,0,1,3.362,2.059,7.614,7.614,0,0,1-.663,2.087,7.537,7.537,0,0,1-10.094,3.506,7.642,7.642,0,0,1-3.482-10.169,7.557,7.557,0,0,1,6.8-4.275A7.457,7.457,0,0,1,319.6,427.645Zm-.46,5.564a2.074,2.074,0,0,1-.2.726,2.049,2.049,0,0,1-1.614,1.138c-.341-.86-.393-1.538-.142-1.826a1,1,0,0,1,.761-.236A4.421,4.421,0,0,1,319.145,433.209Zm-3.418,1.34a2.061,2.061,0,0,1,1.38-3.587,2.025,2.025,0,0,1,1.534.7,2.61,2.61,0,0,0-2.491.655A2.478,2.478,0,0,0,315.727,434.549Zm13.738,10.418a1.51,1.51,0,0,1,.774-1.323,1.392,1.392,0,0,1-.066,1.17.965.965,0,0,1-.7.231C329.466,445.019,329.465,444.994,329.465,444.967Zm2.193-1.337a1.511,1.511,0,0,1-.69,2.851,1.453,1.453,0,0,1-.657-.157,2.29,2.29,0,0,0,.9-.579A2.428,2.428,0,0,0,331.658,443.63Z" transform="translate(-301.912 -425.515)"/></svg>