<svg xmlns="http://www.w3.org/2000/svg" width="36" height="32" viewBox="0 0 36 32"><defs><style>.a{fill:#f9fbfd;}</style></defs><path class="a" d="M32.625,18.25H27V13.679a4.54,4.54,0,0,1,4.5-4.571h.563A1.7,1.7,0,0,0,33.75,7.393V3.964A1.7,1.7,0,0,0,32.063,2.25H31.5A11.337,11.337,0,0,0,20.25,13.679V30.821a3.4,3.4,0,0,0,3.375,3.429h9A3.4,3.4,0,0,0,36,30.821V21.679A3.4,3.4,0,0,0,32.625,18.25Zm-20.25,0H6.75V13.679a4.54,4.54,0,0,1,4.5-4.571h.563A1.7,1.7,0,0,0,13.5,7.393V3.964A1.7,1.7,0,0,0,11.813,2.25H11.25A11.337,11.337,0,0,0,0,13.679V30.821A3.4,3.4,0,0,0,3.375,34.25h9a3.4,3.4,0,0,0,3.375-3.429V21.679A3.4,3.4,0,0,0,12.375,18.25Z" transform="translate(0 -2.25)"/></svg>