<svg xmlns="http://www.w3.org/2000/svg" width="60.403" height="46.4" viewBox="0 0 60.403 46.4"><defs><style>.a{fill:#090908;stroke:#090908;stroke-width:0.4px;}</style></defs><g transform="translate(-318.944 -180.768)"><path class="a" d="M380.042,181.838a2.4,2.4,0,0,0-1.83-.87h-.837a4.026,4.026,0,0,0-3.861,3.838l-.908,20.712a2.173,2.173,0,0,1-2.077,2.058h-7.88a4.456,4.456,0,0,0-4.229,4.592v.5a2.567,2.567,0,0,0,2.442,2.654h2.117L359.932,226.1a.687.687,0,0,0,.411.846.544.544,0,0,0,.147.019.594.594,0,0,0,.551-.449l1.141-4.038H375.32l1.138,4.02a.606.606,0,0,0,.568.463.5.5,0,0,0,.149-.028.677.677,0,0,0,.4-.829l-3.1-10.954.314-.1a6.144,6.144,0,0,0,1.439-.654.7.7,0,0,0,.222-.916.547.547,0,0,0-.725-.271.279.279,0,0,0-.051.028,5,5,0,0,1-2.633.758H360.85a1.313,1.313,0,0,1-.916-.416,1.265,1.265,0,0,1-.339-.928v-.473a3.187,3.187,0,0,1,3.043-3.284h7.881a3.392,3.392,0,0,0,3.251-3.236l.909-20.711a2.8,2.8,0,0,1,2.685-2.66h.854a1.276,1.276,0,0,1,.989.47,1.442,1.442,0,0,1,.328,1.056l-1.256,25.005a6.244,6.244,0,0,1-.215,1.2.688.688,0,0,0,.41.849.579.579,0,0,0,.686-.387l.011-.042a7.632,7.632,0,0,0,.272-1.488l1.255-25A2.877,2.877,0,0,0,380.042,181.838Zm-17.491,39.319,1.652-5.835h9.085l1.651,5.834Z" transform="translate(-1.564 0)"/><path class="a" d="M337.192,207.576h-7.844a2.178,2.178,0,0,1-2.093-2.06l-.908-20.707a4.033,4.033,0,0,0-3.877-3.841h-.826a2.385,2.385,0,0,0-1.824.869,2.854,2.854,0,0,0-.663,2.094l1.26,25.033a7.687,7.687,0,0,0,.267,1.464l.016.062a.588.588,0,0,0,.72.365.673.673,0,0,0,.377-.826,6.051,6.051,0,0,1-.217-1.2L320.32,183.8a1.407,1.407,0,0,1,.336-1.045,1.26,1.26,0,0,1,.982-.465h.839a2.8,2.8,0,0,1,2.7,2.663l.909,20.705a3.4,3.4,0,0,0,3.268,3.239H337.2a3.2,3.2,0,0,1,3.063,3.3v.474a1.292,1.292,0,0,1-1.238,1.324h-12.2a4.981,4.981,0,0,1-2.626-.754.239.239,0,0,0-.049-.026.548.548,0,0,0-.726.252.719.719,0,0,0,.228.943,6.1,6.1,0,0,0,1.425.645l.312.1-3.1,10.942a.688.688,0,0,0,.412.846.53.53,0,0,0,.146.019.591.591,0,0,0,.55-.449l1.144-4.038h13.135l1.139,4.021a.609.609,0,0,0,.57.463.568.568,0,0,0,.153-.028.676.676,0,0,0,.392-.828l-3.05-10.782h2.129a2.554,2.554,0,0,0,2.422-2.636v-.5A4.472,4.472,0,0,0,337.192,207.576Zm-1.537,7.746,1.652,5.835H324.921l1.649-5.835Z" transform="translate(0 0)"/><path class="a" d="M356.546,224.413A3.007,3.007,0,0,0,353.657,222h-.893V193.683H364.43a1.765,1.765,0,0,0,1.4-.718,2.152,2.152,0,0,0,.385-1.69,3.952,3.952,0,0,0-3.759-3.325H343.333a.644.644,0,0,0-.416.235.661.661,0,0,0,.085.94.677.677,0,0,0,.372.15h19.1a2.731,2.731,0,0,1,2.606,2.285.69.69,0,0,1-.131.541.636.636,0,0,1-.518.262H335.341a.646.646,0,0,1-.52-.27.681.681,0,0,1-.121-.549,2.718,2.718,0,0,1,2.587-2.266h1.749a.667.667,0,0,0-.04-1.325h-1.7a3.944,3.944,0,0,0-3.742,3.31,2.166,2.166,0,0,0,.382,1.7,1.77,1.77,0,0,0,1.409.721h11.665V222h-.906a3,3,0,0,0-2.877,2.413l-.219.911a1.7,1.7,0,0,0,.259,1.377,1.372,1.372,0,0,0,1.122.6h10.992a1.368,1.368,0,0,0,1.111-.593,1.7,1.7,0,0,0,.264-1.38ZM348.177,222V193.683h3.415V222Zm7.535,3.976-11.652,0,.291-1.2a1.811,1.811,0,0,1,1.741-1.449h7.574a1.826,1.826,0,0,1,1.756,1.462Z" transform="translate(-0.572 -0.333)"/></g></svg>