<svg xmlns="http://www.w3.org/2000/svg" width="32" height="32" viewBox="0 0 32 32"><defs><style>.a{fill:#fff;}</style></defs><g transform="translate(-0.344)"><g transform="translate(0.344 0)"><path class="a" d="M25.648,45.378a3.154,3.154,0,0,0-2.286-1.047,3.261,3.261,0,0,0-2.313,1.04L18.911,47.5c-.176-.095-.352-.182-.521-.27-.243-.122-.473-.236-.67-.358a23.218,23.218,0,0,1-5.566-5.065,13.682,13.682,0,0,1-1.826-2.877c.555-.507,1.069-1.033,1.569-1.54.189-.189.379-.385.568-.574a3.1,3.1,0,0,0,0-4.674L10.619,30.3c-.21-.209-.426-.425-.629-.642-.406-.419-.832-.851-1.272-1.256a3.2,3.2,0,0,0-2.266-.993,3.315,3.315,0,0,0-2.3.993l-.014.014-2.3,2.317A4.938,4.938,0,0,0,.372,33.869a11.824,11.824,0,0,0,.866,5.011A29.071,29.071,0,0,0,6.412,47.5a31.822,31.822,0,0,0,10.6,8.287,16.531,16.531,0,0,0,5.952,1.756c.142.007.291.014.426.014a5.1,5.1,0,0,0,3.9-1.675c.007-.014.02-.02.027-.034A15.364,15.364,0,0,1,28.5,54.624c.291-.277.588-.567.879-.871A3.367,3.367,0,0,0,30.4,51.416,3.244,3.244,0,0,0,29.361,49.1Zm2.421,7.112c-.007,0-.007.007,0,0-.264.284-.534.54-.825.824a17.771,17.771,0,0,0-1.305,1.351A3.263,3.263,0,0,1,23.4,55.738c-.1,0-.21,0-.311-.007a14.685,14.685,0,0,1-5.276-1.58,30.038,30.038,0,0,1-9.983-7.807,27.411,27.411,0,0,1-4.87-8.1A9.631,9.631,0,0,1,2.2,34.018a3.1,3.1,0,0,1,.933-2.006l2.306-2.3a1.538,1.538,0,0,1,1.028-.48,1.448,1.448,0,0,1,.987.473l.02.02c.413.385.8.783,1.217,1.209.21.216.426.432.643.655l1.846,1.844a1.288,1.288,0,0,1,0,2.094c-.2.2-.386.392-.582.581-.568.581-1.109,1.121-1.7,1.648-.014.014-.027.02-.034.034a1.376,1.376,0,0,0-.352,1.533l.02.061a14.8,14.8,0,0,0,2.185,3.559l.007.007A24.812,24.812,0,0,0,16.734,48.4a9.238,9.238,0,0,0,.832.452c.243.122.473.236.67.358.027.014.054.034.081.047a1.468,1.468,0,0,0,.67.169,1.447,1.447,0,0,0,1.028-.466l2.313-2.31a1.531,1.531,0,0,1,1.021-.507,1.378,1.378,0,0,1,.974.493l.014.014,3.727,3.721A1.334,1.334,0,0,1,28.069,52.49Z" transform="translate(-0.344 -25.555)"/><path class="a" d="M245.7,87.734a8.7,8.7,0,0,1,7.088,7.078.907.907,0,0,0,.9.756,1.208,1.208,0,0,0,.156-.014.913.913,0,0,0,.751-1.054,10.518,10.518,0,0,0-8.576-8.564.918.918,0,0,0-1.055.743A.9.9,0,0,0,245.7,87.734Z" transform="translate(-228.4 -80.122)"/><path class="a" d="M263.958,14.116A17.319,17.319,0,0,0,249.836.014a.911.911,0,1,0-.3,1.8,15.469,15.469,0,0,1,12.621,12.6.907.907,0,0,0,.9.756,1.209,1.209,0,0,0,.156-.014A.9.9,0,0,0,263.958,14.116Z" transform="translate(-231.972 0)"/></g></g></svg>